<?xml version="1.0" encoding="utf-8"?>
<!-- Generator: Adobe Illustrator 20.1.0, SVG Export Plug-In . SVG Version: 6.00 Build 0)  -->
<svg version="1.1" id="Layer_1" xmlns="http://www.w3.org/2000/svg" xmlns:xlink="http://www.w3.org/1999/xlink" x="0px" y="0px"
	 viewBox="0 0 151 75.5" style="enable-background:new 0 0 151 75.5;" xml:space="preserve">
<style type="text/css">
	.st0{fill:#0090FC;}
</style>
<path class="st0" d="M69.1,53.6l-9.5-13H47c-1.5,0-3.1,0-4.7,0c-1.6,0-3.1,0.1-4.3,0.2c0.7-0.9,1.5-2.1,2.5-3.4
	c0.9-1.4,1.8-2.7,2.7-3.9L52.2,20l10.5,14.8c21.3,0,35.8,0,57.2,0l-9.2-13H71.9L62,7.8L58.6,3h-2.2h-9h-2.2L42,7.7l0,0l-0.1,0.1
	L10.2,53.6H69.1z"/>
<path class="st0" d="M123.9,40.6l9.2,13H76l-9.2-13h6.7H123.9L123.9,40.6z M97.2,3l9.2,13H74.6L65.4,3H97.2z"/>
<g>
	<path class="st0" d="M14.4,72.2l-0.9-1.7H6.8L6,72.2H2.4L7.8,62h4.8l5.3,10.2H14.4L14.4,72.2z M68.3,64.4h3h5.3V62H65.2v2.4H68.3
		L68.3,64.4z M65.2,65.9v6.3h11.3v-2.4h-8.3v-1.6h7.8v-2.2h-4.8h-3H65.2L65.2,65.9z M49.6,62H53l3.7,7.6h0.6L61,62h3.4l-5,10.2h-4.8
		L49.6,62L49.6,62z M45.5,62h3.3v10.2h-3.3V62L45.5,62z M32.1,62h12.3v2.6h-4.5v7.6h-3.3v-7.6h-4.5V62L32.1,62z M28.3,68.3h3.1
		c0,0.5,0,0.8,0,1c0,0.8-0.1,1.4-0.4,1.8c-0.3,0.5-0.8,0.8-1.5,1c-0.7,0.2-2,0.3-3.9,0.3c-1.9,0-3.3,0-4.1-0.1
		c-0.8-0.1-1.4-0.2-1.9-0.4c-0.4-0.2-0.7-0.5-0.8-0.8c-0.2-0.3-0.3-0.8-0.4-1.3c0-0.5-0.1-1.3-0.1-2.5c0-1.2,0-2,0.1-2.5
		c0-0.5,0.1-0.9,0.3-1.2c0.3-0.6,0.9-1.1,1.7-1.3c0.9-0.2,2.6-0.3,5.2-0.3c1.3,0,2.3,0,2.9,0.1c0.6,0.1,1.1,0.2,1.4,0.3
		c0.5,0.2,0.8,0.5,1,1c0.2,0.4,0.3,1.1,0.3,1.9c0,0,0,0.2,0,0.5h-3.1c0-0.3,0-0.6-0.1-0.7c0-0.1-0.1-0.2-0.2-0.3
		c-0.1-0.1-0.4-0.2-0.9-0.2c-0.5,0-1.2-0.1-2.2-0.1c-1,0-1.6,0-2,0.1c-0.4,0-0.6,0.1-0.8,0.2c-0.2,0.2-0.3,0.4-0.4,0.8
		c-0.1,0.4-0.1,0.9-0.1,1.7c0,0.8,0,1.3,0.1,1.6c0.1,0.3,0.2,0.5,0.4,0.7c0.2,0.1,0.4,0.2,0.8,0.3c0.4,0,1.1,0.1,2,0.1
		c1.2,0,2,0,2.4-0.1c0.4,0,0.7-0.1,0.8-0.3C28.2,69.3,28.3,68.9,28.3,68.3L28.3,68.3z M12.5,68.3l-2-3.8H9.9l-2,3.8H12.5z"/>
	<path class="st0" d="M115.5,66.4h7.1c0,0.2,0,0.3,0,0.3c0,1.4,0,2.5-0.1,3.2c-0.1,1.2-0.8,1.9-2,2.1c-0.5,0.1-1.1,0.2-1.8,0.2
		c-0.7,0-1.7,0.1-3.1,0.1c-1.7,0-3,0-3.7-0.1c-0.7-0.1-1.3-0.3-1.7-0.6c-0.3-0.2-0.5-0.4-0.7-0.7c-0.2-0.3-0.3-0.7-0.3-1.2
		c-0.1-0.5-0.1-1.4-0.1-2.7c0-0.9,0-1.6,0.1-2.1c0.1-0.5,0.1-0.9,0.3-1.3c0.3-0.8,0.9-1.3,1.9-1.4c1-0.2,2.6-0.3,4.8-0.3
		c1.3,0,2.3,0,3,0.1c0.7,0.1,1.4,0.2,1.8,0.3c0.8,0.2,1.3,0.8,1.4,1.6c0.1,0.4,0.1,1,0.1,1.7h-3.1c0-0.3,0-0.5-0.1-0.6
		c0-0.1-0.1-0.2-0.2-0.3c-0.2-0.1-0.5-0.2-1.1-0.2c-0.5,0-1.3,0-2.3,0c-1.1,0-1.8,0-2.3,0.1c-0.5,0.1-0.8,0.1-0.9,0.3
		c-0.2,0.1-0.3,0.4-0.3,0.7c-0.1,0.3-0.1,0.9-0.1,1.6c0,0.9,0,1.5,0.1,1.8c0.1,0.3,0.2,0.6,0.3,0.7c0.2,0.1,0.4,0.2,0.7,0.2
		c0.3,0,1.1,0.1,2.6,0.1c1.4,0,2.3,0,2.6,0c0.3,0,0.5-0.1,0.7-0.1c0.1-0.1,0.3-0.2,0.3-0.3c0.1-0.1,0.1-0.4,0.1-0.7c0,0,0-0.1,0-0.3
		h-4.1V66.4L115.5,66.4z M84.7,64.4h1.7h6.5V62H81.7v2.4H84.7L84.7,64.4z M81.7,65.9v6.3H93v-2.4h-8.3v-1.6h7.8v-2.2h-6h-1.7H81.7
		L81.7,65.9z M127.2,64.4h2.7h5.5V62h-11.3v2.4H127.2L127.2,64.4z M124.2,65.9v6.3h11.3v-2.4h-8.3v-1.6h7.8v-2.2H130h-2.7H124.2
		L124.2,65.9z M94.3,72.2V62h7.3c1.3,0,2.1,0,2.6,0c0.4,0,0.8,0.1,1.3,0.2c1,0.2,1.7,0.8,2,1.7c0.1,0.4,0.2,0.7,0.2,1.1
		c0,0.4,0.1,1,0.1,1.9c0,0.9,0,1.6-0.1,2.1c0,0.5-0.1,0.9-0.3,1.3c-0.3,0.9-0.9,1.4-1.9,1.7c-0.4,0.1-0.9,0.2-1.4,0.2
		c-0.5,0-1.3,0-2.5,0H94.3L94.3,72.2z M97.4,69.6h4.3c0.8,0,1.4,0,1.8-0.1c0.4-0.1,0.6-0.1,0.8-0.3c0.2-0.1,0.3-0.4,0.4-0.7
		c0.1-0.3,0.1-0.8,0.1-1.4c0-0.6,0-1.1-0.1-1.4c-0.1-0.3-0.2-0.6-0.3-0.7c-0.2-0.2-0.4-0.3-0.7-0.4c-0.3-0.1-1-0.1-1.9-0.1h-4.3
		V69.6z"/>
	<path class="st0" d="M136.5,62h5v1.1h-1.8v2.8h-1.4v-2.8h-1.8V62L136.5,62z M141.9,62h2.3l1.2,2.4l1.2-2.4h2.3v3.9h-1.3l0-2.8h-0.1
		l-1.5,2.8h-1.1l-1.5-2.8h-0.1l0,2.8h-1.3V62z"/>
</g>
</svg>
