<?xml version="1.0" encoding="utf-8"?>
<!-- Generator: Adobe Illustrator 20.1.0, SVG Export Plug-In . SVG Version: 6.00 Build 0)  -->
<svg version="1.1" id="Layer_1" xmlns="http://www.w3.org/2000/svg" xmlns:xlink="http://www.w3.org/1999/xlink" x="0px" y="0px"
	 viewBox="0 0 1490.9 792" style="enable-background:new 0 0 1490.9 792;" xml:space="preserve">
<style type="text/css">
	.st0{fill:#010101;}
	.st1{fill:url(#SVGID_1_);}
	.st2{fill:url(#SVGID_2_);}
	.st3{fill:url(#SVGID_3_);}
	.st4{fill:url(#SVGID_4_);}
	.st5{fill:url(#SVGID_5_);}
	.st6{fill:url(#SVGID_6_);}
	.st7{fill:url(#SVGID_7_);}
	.st8{fill:url(#SVGID_8_);}
	.st9{fill:#231F20;}
	.st10{fill:#FFFFFF;}
</style>
<path class="st0" d="M810.2,597.6c10.4,0,42.9-0.3,53,0c2.4,4.9,3.1,10.7,10.7,18.7c7.7,8,15.1,10.4,24.9,10.5c0,0,64.3,0,87.4-0.2
	c10.9,0.4,28,0.4,33.8-4.2c4.9-3.5,9.2-7.1,11.7-10.8c2.5-3.7,6.1-13.4,6.1-13.4l59.5-0.2c6.3,10.9,19.2,28.5,47.9,28.6
	c7.5,0.2,131.4,0.1,131.4,0.1c53,0,66.4-37.4,65.4-82.4c-0.4-15.6-0.2-81.5-0.4-92.3l94.9-0.4c24.3,0,44.1-19.8,44.1-44.1l0-133.4
	c0,0,0,0.1,0,0.1c-0.1-6,0.1-12-2.6-17.3c-3.1-2.5-5.2-5.9-6.4-9.7l-1.8-8.9c-0.1-0.6-0.1-1.2-0.2-1.8c-0.6-1.3-1.4-2.5-2.2-3.7
	c-1-0.5-1.9-1-2.3-1.3l1.6,0.3c-0.1-0.2-0.2-0.3-0.3-0.5c-2.7-1.2-6.4-3.3-10.1-5.4c-3.3-1.6-10.1-3.7-18.9-7
	c-7.8-2.9-5.7-0.8-10.9-0.4c-14.4,11.4-31.6-14.3-42.7-17.3c-1-5.6-10.8-5.3-12-3c0.8,0.3-5.4-1.3-7.7-1.6
	c-6.5-1.2-12.8-1.9-18.5-2.2c-9.5-1.9,1.3,0-8.8-4.3c1.2,0.2,0.4-0.9-0.2-1.8c-0.2-0.1-0.4-0.3-0.6-0.4c-1.1-0.5-3.8-2-6.4-3.5
	c-8.1-3.6-10.4-0.9-5.8-0.9c-8.4,0.5-15.7-1-24.8-3c-6.7-1.8-23.7-4.2-23.1-4.4c-1.2,0.1-2.4,0-3.7-0.2c-0.5,0-0.9,0-1.4,0
	c-4.1,0.8-9.8,1.2-16.1,0.8c-3.9,0.3-7.7,0.4-11.5-0.3c0,0.1-0.1,0.2-0.4,0.3c-2.3-0.2-5.5-0.4-8.9-1.8c-1.7-1.6-0.6-2.8-12.9-6.8
	c0.1,0,0.3,0,0.4,0c-0.7-0.2-1.5-0.7-2-1.2c0,0,0-0.1,0-0.1c-0.8-0.3-1.6-0.7-2.3-1c0-0.1-0.1-0.2-0.1-0.3c0,0,0,0,0,0
	c0,0.1,0,0.2,0,0.3c-0.1,0-0.1-0.1-0.2-0.1c-0.1,0-0.5-0.1-0.9-0.4c-0.2-0.1-0.4-0.2-0.6-0.3c0,0.1,0,0.1,0.1,0.2c0,0,0,0-0.1,0
	c0,0,0-0.1,0-0.1c-0.3-0.2-0.6-0.3-0.9-0.5c-1.5-1.2-1.6-1.4-1-1.2c-0.3-0.2-0.5-0.6-0.5-1c-0.2-0.5-0.5-1-0.7-1.5
	c-0.8-0.2-1.5-0.3-1.7-1.1c-2.2-1.3-4.1-2.3-6.5-3.6c-2.6-1.3-5.2-2.4-8.4-3c-1.4-0.1-2.8-0.3-4.2-0.5c0.1,0,0.2,0,0.3,0.1
	c-0.3,0.2-0.5,0.5-0.8,0.7c-4.2-0.6-9.7-1.2-16.7,0.5c-2.2,0.5-0.7,0.5,1.3,0.4c0.1,0.1,2.4-0.2,2.2,0c0.7-0.2,1.1-0.1,1.2,0
	c1.1,1.3-5.5,1.4-13.5,1.5c-11.4,0.1-5.1-1.2-11.1-1.5c-1,0.3-1.8,0.7-2.8,1.1c0,0.1,0,0.1,0.1,0.1c-0.3,0.5-2.8,1.4-4.1,1.7
	c0.1,0.1-0.5,0.2-1,0.2l-0.4-0.1c-2.1-0.9-3.3-1.7-4.5-2.5c-2.3-1.7-4.7-3.7-12.7-6.6c-0.3-0.2-0.5-0.2-0.8-0.5
	c-1.3-0.7-2.5-1.7-3.5-2.9c0,0.1,0.1,0.1,0.1,0.2c-0.1-0.1-0.1-0.2-0.2-0.4c-0.6-0.8-1.2-1.7-1.5-2.5c-2.2-3.2-5.8-6.5-10.1-6.9
	c0,0,0,0,0.1,0c-1.9-0.3-3.6-1.2-5.3-2.2c-0.2,0-0.4-0.1-0.6-0.1c-0.1,0-0.2,0-0.4,0c0.1,0,0.1,0,0.2,0c-0.7-0.2-1.3-0.3-2-0.6
	c-0.3-0.1-0.5-0.3-0.7-0.5c-1.6-0.4-3.2-0.8-4.8-1c-1.9-0.1-3.7-0.1-5.7,0.1c-1.8,0.2-3,0.8-4.5,0.9c0.5,0.2,1.8,0.3-3.5,1.2
	c0.1-0.1,0.2-0.1,0.3-0.2c-1.7,0.2-3.3,0.3-5,0.5c-1.8,0.6-5.7,1.3-8.8,1.7c-2.8,0.4-3.5-0.2-7.6,0.9c-1.8,0.5-2.3,0.1-3.7,0.2
	c-2.7-0.3-4.2-0.6-3.7-0.7c-0.2,0-0.5-0.1-0.7-0.1c-1.3-0.1-2.6-0.1-3.9,0c-1.8,0.4-3.6,0.8-4.4,1.2c-6.5-0.1-10.1-1.3-12.3-1.4
	l0.8,0c-0.9-0.2-1.8-0.6-2.8-0.8c-2.2-0.6-4.6-0.9-7-1.3l-0.1,0c-1.1-0.2-2-0.4-2.4-0.6c-0.3-0.1-0.7-0.2-1-0.3
	c-2.4-0.1-6-0.6-7.2-0.7l-0.3-0.4c-2,0-4.1-0.4-6.1-1c-3.5-0.9-9.1-2.6-9.6-2.7c0-0.1-0.2-0.3-0.7-0.6c-0.7-0.3-1.4-0.6-2-1
	c-3.9-1.6-11.6-3.8-19.2-3.7c-1.2,0-2.4,0.2-3.5,0.6c0,0,0,0,0.2-0.1c-1.3-0.5-2.4-0.7-3.4-1.2l-2.6,0.3c-1.4-2.5-12.6-3.2-19.8-4.5
	c0,0,0,0,0,0c-0.2,0-0.4-0.1-0.6-0.1c0.1,0,0.1,0,0.1,0c-0.9-0.2-1.7-0.6-2.6-0.8c-3.3-0.2-8.9-1.1-8.1-0.5
	c-0.9-0.3-1.7-0.6-2.3-0.8c-0.1-0.1-0.3-0.3-0.7-0.5l0,0c0.3,0.2,0.5,0.4,0.7,0.5c-2.5-0.9-2.8-1.3-2.3-1.4
	c-0.2-0.2-0.4-0.3-0.5-0.5c-1.4-1.8-2.2-3.9-4.1-5.2c-0.6-0.2-1.3-0.4-1.8-0.7c0,0-0.1-0.1-0.1-0.1c-1.5-0.7-5.9-3.2-7.2-3.1
	c-2.6-1.3-3.9-1.9-4.4-2.3c-0.9-0.2-1.9-0.5-2.7-0.9c-1.6-0.9-3.1-1.1-4.7-1.7c0.5,0.3,1.1,0.6,2,1c-6.1-2.9-13-4.7-19.7-8.7
	c-1.4-0.6-3.2-0.9-4.6-1.5c-0.8-0.1-1.8-0.2-3.1-0.1c-0.8,0-1.8,0.1-2.9,0.3c0,0,0,0,0,0c0,0-0.1,0-0.1,0c0,0-0.1,0-0.1,0
	c0,0,0,0,0,0c-0.3,0.1-0.5,0.1-0.8,0.1c-0.8,0.1-1.6,0.5-2.6,0.8c0.5,0.4-0.2,0.2-0.8,0.2c-0.4-0.4-0.8-0.8-1.3-1.2
	c-0.2-0.1-0.5-0.3-0.7-0.6c-1-0.7-2.1-1.4-3-1.6c-0.1,0-0.2,0-0.3-0.1c-1-0.4-2.1-0.8-3.4-0.9c-0.7-0.2-1.2-0.3-1.5-0.4
	c-1-0.2-2-0.6-2-1.7c-0.6-0.3-0.6-0.5,0-0.7c0.1-0.8,0.4-1.5-0.2-2.2c-0.4-0.6-0.9-1.3-1.2-2c-0.2-0.5-0.4-0.9-0.6-1.4
	c-0.9-0.8-1.9-1.6-2.8-2.3c-2.1-1.5-4-2.7-6-4c-1.6-1-2.4-1.9-5.4-3.5c-0.2-0.1-0.4-0.2-0.6-0.3c-0.2,0-0.5-0.1-0.6-0.3
	c-0.1,0-0.1-0.1-0.2-0.1l0-0.1c-0.1-0.2-0.3-0.4-0.4-0.5c-0.4-0.5-0.2-1.1,0.2-1.5c0-2.4-1.2-4.5-2.4-6.5c-0.3-0.5-0.7-1.5-1.2-2.5
	c-0.6-0.6-1.2-1.2-2-2c-0.3-0.1-0.7-0.3-0.9-0.5c-1.3-0.5-2.6-0.9-3.8-1.7c-0.6-0.4-1.1-0.8-1.7-1.2c-8.5-2.4-13.7,0.2-21-0.8
	l-12.9,0.1c-2.4,0.1-3.8,0-6.9,0.1c-1.8,0.2-2.3,0.3-3.6,0.5l-0.3,0c-2.9-3.2-5.1-14-13.6-18.3c-1.4-0.8-2.9-1.8-4-2.8l-0.5-0.5
	l-0.1-0.1l0,0l-1.3-3.1c-3.5-4.9-7.8-6.5-10.4-7.6c-3.3-3-11.3-8.6-25.5-10.7c-1.6,0.4-3.5,0.5-5.1,0.1c-1.6,0.2-3.4,0.4-4.9,0.8
	c-2.9,0.3-5.7,0.8-8.5,1.6c-6.6,2.8-10.1,8.2-12.9,11.8c0.3-0.1,0,0.2-0.4,0.7l-1.6,0.1c-2.3,0.1-4.7,0-8,1
	c-2.2,0.2-2.9,0.1-3.6,0.3c-10.3,6.5-6.6,6.8-9.5,9.5c-1.4,1-2.8,2-4.7,4.5l-0.2,1.8l-1,3.7c-1.8,0.4-3.5,1.1-4.9,2
	c-1.6,1-2.7,1.7-3.5,2.3c0,0.2-0.2,0.4-0.4,0.6c-1.1,0.8-2.1,1.8-3.3,2.5c-3.1,2.8-10.6,5-14.7,17c-2.9-1.1-16.4,13.7-18.4,16.1
	c-1.8,1.4-3.6,2.9-5.4,4.6l-1.4,1.3l-0.3,0.1l-3.8,1.6c-5.2,2.2-10.7,4.4-16.4,6.7c-12.3,3.2-23.6,14.1-33.8,14.9
	c-4.7,1.5-3.2,1.3-5.4,2.3c-13.4-0.1-32.3,2.1-48.5,6.4c0,0,0,0.1-0.1,0.1c-0.3,0.2-0.7,0.4-1,0.6c0.7,0.5-4.1,2.8-11.2,5.9
	c-8.9,5.2-4.5,0.4-13,3.6c-3.5,2.4-11.5,5.1-15.1,6.3l0.2-0.3c-5.5,2.8-12.7,5.5-19.6,6l1-0.3c-5.4,1.1-11.7,1.8-17.3,3.2
	c-1.9,1.3-17,4.9-17.9,5c-0.7-0.2,0.4-0.2-1.2-0.5l-0.6,0.8c-3.3-0.5-6.5-0.6-9.8-0.5c-0.2,0-0.4,0.1-0.6,0.1
	c-0.9,0.1-2,0.1-2.9-0.3c-0.2,0.3-0.8,0.6-2.8,0.9c-8.6,1.7-8.2,1.2-12.4,1.6c0.2-0.1,0.4-0.1,0.6-0.2c-0.1,0-0.2,0-0.3,0
	c-0.1,0-0.2,0-0.3-0.1c-1.2,0.5-2.8,1.1-5.7,1.9c-0.8,0.3-6.6,2-7.7,2.7c-0.7-0.4-1.3-0.7-1.8-1.1c-1.1,0-2.2-0.2-3.3-0.6
	c0.1,0.1,0.2,0.2,0.2,0.2c-0.4-0.2-0.9-0.5-1.4-0.7c-0.8-0.3-1.5-0.7-2.2-1.2c-1-0.5-2.1-1.1-3.1-1.6c-1.2-0.1-2.2-0.1-2.9-0.1
	c-0.7,0.2-1.5,0.4-2.3,0.6c-1.2,0.2-2.5,0.4-3.6,0.1c-3.5,0.6-7,1.2-4.5,1.3c-2.4,0-4.8-0.1-7.2-0.3c-2.7,0.9-11.3,0.7-18,0.9
	c-0.3-0.9,5.2-2-7.5-2.2l-10.9,1c-5.8,0.1-7.2-0.1-6.3-0.7c-14.8,2.9-13.4,7.1-18.8,9.2c-1.8,1.3-3.6,2.3-6,4
	c-0.4,0.3-0.5,0.3-1.2,1c0,0.2-0.4,0.2-0.8,1c-1.1,0.4-2.4,0.7-3.8,1.1c0.2-0.1,0.3-0.2,0.5-0.3c-0.6,0.1-1.2,0.1-1.8,0.1
	c-1.9,0.8-6.1,2.1-8.1,2.9c-11.5,4.7-45.8,5.8-65.7,9.6c2,0.9-11.4,0.9-15.5,3.7c0.6-1.3-5.8,1.6-11.7,3.8c-1,0.7-2,1.6-3.1,2.1
	l0.6,0c-5.9,1.3-12.8,6.1-14.6,5.1c-5.2-0.7-9.5-0.6-14-1c-2.7,0-3.2-0.2-2.7-0.4c-1.1-0.2-2.2-0.5-3.3-0.8c-0.2,0-0.3,0-0.5,0
	c-9.4,1.7-19,5.2-22.4,1.9c-1.8,0.5,3.4,1.6-8.8,0.3c-4.3,0.6-22.5-1.6-21.2,0.5c-6.1,4.6-6.2,6.4-10.6,11.3c0,0.1,0,0.1-0.1,0.2
	c-0.2,0.2-0.4,0.4-0.7,0.5c-0.2,0.3-0.5,0.6-0.8,0.9c-0.4,0.4-0.8,0.7-1.3,1.1c-1.1,1.6-2.3,0.1-3.3,1.5c-1.1,1.3-6-3.5-6.4-3.5
	c-5.5,4.8-2.9,4.6-5,6.7c-4.2,2.5,2.5,1-13.1-0.4c-7.3,8.3-7.3,12.7-8.3,18.5c-10.3,10.6-18.7,29-19.4,47.6
	c0.2,10,0.4,96.9,1.1,115.3c0.7,18.4,10.7,29.3,21.2,40.1c19,19.6,71.4,19.9,71.4,19.9c4.2-0.2,16.8,0.4,32.7,0.9
	c3,0.1,6.1,0.2,9.2,0.3l-0.1,0.3c-0.1,10.7-1.5,80.8-1.4,85.5c-1.3,20.8,1.1,40.9,18.8,62.3c17.8,21.4,39.6,20.4,50.2,21.1
	c36.1,0.3,63.7-0.3,97.7,0c31.8-0.5,42.4-2.3,53.7-6.4c11.3-4.2,21.1-14.1,27.6-24.2c5.4,8.3,13.6,29.4,40.3,29.7
	c8.4,0.1,28.2,0.6,41,0.4c17-0.2,24.4-3.8,31.2-9s10.8-12.6,14.3-21.2c2.7,6.8,13,28.6,31.3,28.6c9.5,0,30.4,0.1,41.9,0
	c15.4-0.1,25.9-17,29.1-28.6c2.8-0.1,25.4-0.2,33.4,0c3.7,11.4,12.4,29,33.1,29c6.9,0,58.3,0,79.2,0c20.9,0,26.7-5.6,32.9-11.4
	C803.5,609.5,807.2,603.4,810.2,597.6z"/>
<path class="st0" d="M1177,154.6c-0.3,0.1-0.7,0.2-1.2,0.4C1176.6,154.8,1176.9,154.6,1177,154.6z"/>
<path class="st0" d="M1335.4,187.8c0.1,0.1,0.2,0.3,0.3,0.5C1335.9,188.4,1335.8,188.2,1335.4,187.8z"/>
<path class="st0" d="M875.1,91.8c0.1,0.1,0.2,0.2,0.2,0.3c0.1-0.1,0.1-0.1,0.2-0.2C875.3,92,875.2,91.9,875.1,91.8z"/>
<path class="st0" d="M1214.4,165.3L1214.4,165.3C1214.4,165.3,1214.4,165.3,1214.4,165.3C1214.4,165.3,1214.4,165.3,1214.4,165.3z"
	/>
<path class="st0" d="M1341.6,191.3L1341.6,191.3C1341.4,191.3,1341.5,191.3,1341.6,191.3z"/>
<path class="st0" d="M1342.3,191.8L1342.3,191.8c-0.2-0.1-0.4-0.1-0.5-0.1C1342.1,191.8,1339.1,191,1342.3,191.8z"/>
<path class="st0" d="M1090.5,593.6L1090.5,593.6C1091.1,593.9,1091.6,594.1,1090.5,593.6z"/>
<path class="st0" d="M1090.5,593.6L1090.5,593.6L1090.5,593.6L1090.5,593.6c2.9,1.2-4.2-1.9,1.6,0.6c0,0,0,0.1,0.1,0.1
	C1091.3,594,1090.8,593.8,1090.5,593.6z"/>
<path class="st0" d="M1096.5,597.2C1096.5,597.2,1096.5,597.2,1096.5,597.2C1096.5,597.2,1096.5,597.2,1096.5,597.2
	C1096.5,597.2,1096.5,597.2,1096.5,597.2z"/>
<path class="st0" d="M1098.6,597L1098.6,597l-0.1,0c-0.6-0.2-1-0.4-1.5-0.6l0.1,0C1097.6,596.6,1098,596.8,1098.6,597L1098.6,597z"
	/>
<path class="st0" d="M1127.7,153.2C1127.6,154.1,1127.3,154.4,1127.7,153.2L1127.7,153.2z"/>
<path class="st0" d="M1212.7,164.2C1211.9,163.7,1211.6,163.4,1212.7,164.2L1212.7,164.2z"/>
<path class="st0" d="M1445.7,223.4c0.2,0,0.5,0,0.7-0.1c0.1,0.1,0.2,0.1,0.4,0.2C1446.6,223.5,1446.3,223.5,1445.7,223.4z"/>
<linearGradient id="SVGID_1_" gradientUnits="userSpaceOnUse" x1="933.6924" y1="175.0395" x2="933.6924" y2="109.231">
	<stop  offset="0" style="stop-color:#FFEFBC"/>
	<stop  offset="0.1142" style="stop-color:#F4E5B3"/>
	<stop  offset="0.2763" style="stop-color:#DDD19E"/>
	<stop  offset="0.467" style="stop-color:#BDB580"/>
	<stop  offset="0.6796" style="stop-color:#95945E"/>
	<stop  offset="0.9076" style="stop-color:#697238"/>
	<stop  offset="1" style="stop-color:#57652D"/>
</linearGradient>
<path class="st1" d="M835.2,112.7c-10.5,0-7.9-7.9-10.5,0c-2.6,7.9-2.6,7.9-2.6,7.9s-7.9,9.5,0,14.2c7.9,4.7,7.9,11.1,7.9,11.1
	l-13.1,7.9l5.3,9.5c0,0,7.9,3.1,23.6,0c15.7-3.2,34.1-4.7,34.1-4.7l10.5-1.6l13.1,1.6l15.8,3.2l-21,7.9c0,0-23.7,3.2-10.5,4.7
	c13.1,1.6,15.7,0,26.2,0c10.5,0,36.8-4.7,36.8-4.7s15.8-1.6,23.6,0c7.9,1.6,7.9,1.6,7.9,1.6l18.4-1.6c34.1-6.3,49.9-7.9,49.9-7.9
	s-5.3-6.3-15.8-7.9c-10.5-1.6-10.5-1.6-10.5-1.6l-23.6-3.2l-18.4-3.2c0,0-13.1,3.2-18.4-1.6c-5.2-4.7-5.2-4.7-5.2-4.7l-15.8-4.7
	h-13.1l-10.5,4.7l-7.9-6.3l-10.5-6.3l-13.1-3.1l-18.4-3.2l-23.6-9.5L835.2,112.7z"/>
<linearGradient id="SVGID_2_" gradientUnits="userSpaceOnUse" x1="745.683" y1="266.4326" x2="745.683" y2="420.6944">
	<stop  offset="0" style="stop-color:#FFEFBC"/>
	<stop  offset="0.1142" style="stop-color:#F4E5B3"/>
	<stop  offset="0.2763" style="stop-color:#DDD19E"/>
	<stop  offset="0.467" style="stop-color:#BDB580"/>
	<stop  offset="0.6796" style="stop-color:#95945E"/>
	<stop  offset="0.9076" style="stop-color:#697238"/>
	<stop  offset="1" style="stop-color:#57652D"/>
</linearGradient>
<path class="st2" d="M146.7,325.2c-44.5,0.2-49.5-0.2-49.5-13.3c0-8.1,6.4-11.7,15.7-11.7h46c19.1,0,20.2,4.6,20.2,15.6h41.5V311
	c0-26.5-4.5-44.6-52.3-44.6h-57.9c-52.3,0-54.6,21.1-54.6,48.4c0,37.1,7.1,45.4,69.5,45.4c53.4,0,58.3,0.8,58.3,14
	c0,11.7-9,12.7-17.8,12.7h-50.8c-12,0-17.8-1.2-17.9-17.3H55.5V380c0,32.7,15.1,40.7,52.9,40.7h50.3c55.1,0,67.5-6.7,67.5-47.3
	C226.1,329.4,211.1,325,146.7,325.2z M380.7,355.2c0,19.2-6.2,26.7-23.2,26.7h-41.1c-17,0-23.2-7.5-23.2-26.7v-87.1h-41.5v97.1
	c0,37.5,17.4,55.4,55.5,55.4h59.4c38.1,0,55.5-17.9,55.5-55.4v-97.1h-41.5V355.2z M575.5,268.1H450.3V419h41.5v-39.2H557
	c12.9,0,17,5.2,17,21V419h41.5v-25.6c0-24.8-10.3-30.8-22.6-33.3v-0.4c19.1-5,23.2-16.9,23.2-37.1v-9.6
	C616,285.8,607.4,268.1,575.5,268.1z M575.7,326.5c0,10.8-4.1,15.8-15.3,15.8h-68.6v-36.7h64.8c13.1,0,19.1,2.5,19.1,15.8V326.5z
	 M729.3,380.2l-52.9-112.1H631L703.7,419h51.2l72.7-150.9h-45.4L729.3,380.2z M844.8,419h41.5V268.1h-41.5V419z M1054.7,268.1
	l-52.9,112.1l-52.9-112.1h-45.4L976.2,419h51.2l72.7-150.9H1054.7z M1157.9,268.1L1084.7,419h46.3l12.1-26.7h84.1l12.9,26.7h46.2
	L1212,268.1H1157.9z M1158.7,359.8l26.2-56.7l26.9,56.7H1158.7z M1342.6,380.2V268.1h-41.5V419h134.7v-38.8H1342.6z"/>
<linearGradient id="SVGID_3_" gradientUnits="userSpaceOnUse" x1="745.6843" y1="417.5224" x2="745.6843" y2="269.6046">
	<stop  offset="0" style="stop-color:#FFEFBC"/>
	<stop  offset="0.1142" style="stop-color:#F4E5B3"/>
	<stop  offset="0.2763" style="stop-color:#DDD19E"/>
	<stop  offset="0.467" style="stop-color:#BDB580"/>
	<stop  offset="0.6796" style="stop-color:#95945E"/>
	<stop  offset="0.9076" style="stop-color:#697238"/>
	<stop  offset="1" style="stop-color:#57652D"/>
</linearGradient>
<path class="st3" d="M307.2,417.5c-36.2,0-52.3-16.1-52.3-52.3v-94h35.1v84c0,21.2,7.6,29.9,26.3,29.9h41.1
	c18.7,0,26.3-8.6,26.3-29.9v-84H419v94c0,36.2-16.1,52.3-52.3,52.3H307.2z M108.4,417.5c-38.6,0-49.7-8.4-49.7-37.5v-7.2h35.3
	c1.1,16,9.5,17.3,21,17.3h50.8c6.3,0,20.9,0,20.9-15.9c0-17.1-10.6-17.1-61.5-17.1c-60.6,0-66.4-7.5-66.4-42.3
	c0-24.2,0-45.2,51.4-45.2h57.9c45.7,0,49.2,16.4,49.2,41.4v1.6h-35.2c-0.6-11.5-5-15.6-23.3-15.6h-46c-12,0-18.9,5.4-18.9,14.9
	c0,5.4,0.7,11.5,8.6,14.2c5.9,2,15.4,2.4,33.4,2.4c3.3,0,14.8,0,14.8,0c62.7,0,72.2,5.9,72.2,45c0,37.5-9.6,44.1-64.3,44.1H108.4z
	 M1304.3,415.9V271.3h35.2v109c0,1.8,1.4,3.2,3.2,3.2h90.1v32.4H1304.3z M1242.2,415.9l-12-24.9c-0.5-1.1-1.6-1.8-2.9-1.8h-84.1
	c-1.2,0-2.4,0.7-2.9,1.9l-11.3,24.8h-39.2l70.2-144.6h50.1l71.2,144.6H1242.2z M1184.8,300c-1.2,0-2.3,0.7-2.9,1.8l-26.2,56.7
	c-0.4,1-0.4,2.1,0.2,3c0.6,0.9,1.6,1.5,2.7,1.5h53.1c1.1,0,2.1-0.6,2.7-1.5c0.6-0.9,0.6-2.1,0.2-3.1l-26.9-56.7
	C1187.2,300.7,1186.1,300,1184.8,300C1184.9,300,1184.8,300,1184.8,300z M978.2,415.9l-69.7-144.6h38.4l52,110.3
	c0.5,1.1,1.6,1.8,2.9,1.8c1.2,0,2.3-0.7,2.9-1.8l52-110.3h38.4l-69.7,144.6H978.2z M848,415.9V271.3h35.2v144.6H848z M705.7,415.9
	L636,271.3h38.4l52,110.3c0.5,1.1,1.6,1.8,2.9,1.8c1.2,0,2.3-0.7,2.9-1.8l52-110.3h38.4l-69.6,144.6H705.7z M577.1,415.9v-15
	c0-14.9-3.4-24.2-20.2-24.2h-65.2c-1.8,0-3.2,1.4-3.2,3.2v36h-35.1V271.3h122c26.6,0,37.4,12.1,37.4,41.7v9.6c0,19-3.2,29.4-20.8,34
	c-1.4,0.4-2.4,1.6-2.4,3.1v0.4c0,1.5,1.1,2.8,2.5,3.1c10.2,2.1,20.1,6.1,20.1,30.2v22.5H577.1z M491.7,302.5c-1.8,0-3.2,1.4-3.2,3.2
	v36.7c0,1.7,1.4,3.2,3.2,3.2h68.6c12.6,0,18.5-6,18.5-19v-5c0-15.9-8.2-19-22.2-19H491.7z"/>
<linearGradient id="SVGID_4_" gradientUnits="userSpaceOnUse" x1="745.6807" y1="447.2885" x2="745.6807" y2="585.5658">
	<stop  offset="0" style="stop-color:#FFEFBC"/>
	<stop  offset="0.1142" style="stop-color:#F4E5B3"/>
	<stop  offset="0.2763" style="stop-color:#DDD19E"/>
	<stop  offset="0.467" style="stop-color:#BDB580"/>
	<stop  offset="0.6796" style="stop-color:#95945E"/>
	<stop  offset="0.9076" style="stop-color:#697238"/>
	<stop  offset="1" style="stop-color:#57652D"/>
</linearGradient>
<path class="st4" d="M280.7,500c-44.5,0.2-49.5-0.2-49.5-12c0-7.3,6.4-10.5,15.7-10.5h46c19.1,0,20.2,4.1,20.2,14h41.5v-4.3
	c0-23.7-4.5-40-52.3-40h-57.9c-52.3,0-54.6,18.9-54.6,43.4c0,33.3,7.1,40.7,69.5,40.7c53.4,0,58.3,0.8,58.3,12.5
	c0,10.5-9,11.4-17.8,11.4h-50.8c-12,0-17.8-1.1-17.9-15.5h-41.5v9.4c0,29.3,15.1,36.4,52.9,36.4h50.3c55.1,0,67.5-6,67.5-42.4
	C360.1,503.7,345.2,499.8,280.7,500z M375.9,482.4h58.3v101.7h41.5V482.4H534v-33.6H375.9V482.4z M677.4,448.8H552.1v135.3h41.5
	v-35.1h65.2c12.9,0,17,4.7,17,18.9v16.3h41.5v-23c0-22.3-10.3-27.7-22.6-29.9v-0.4c19.1-4.5,23.2-15.1,23.2-33.3V489
	C717.9,464.7,709.3,448.8,677.4,448.8z M677.5,501.1c0,9.7-4.1,14.2-15.3,14.2h-68.6v-32.9h64.8c13.1,0,19.1,2.2,19.1,14.2V501.1z
	 M806,448.8l-73.3,135.3h46.3l12.1-23.9h84.1l12.9,23.9h46.2L860,448.8H806z M806.7,531l26.2-50.8l26.9,50.8H806.7z M1062.2,448.8
	H949.2v135.3h41.5v-34h82.4c29.3,0,38.1-23.2,38.1-43.4v-11.6C1111.2,468.6,1101.6,448.8,1062.2,448.8z M1068.6,502
	c0,8-3.7,14.4-13.5,14.4h-64.5v-34h60.9c12.5,0,17,5.2,17,14.4V502z M1222.4,500c-44.5,0.2-49.5-0.2-49.5-12
	c0-7.3,6.3-10.5,15.7-10.5h46c19.1,0,20.2,4.1,20.2,14h41.5v-4.3c0-23.7-4.5-40-52.3-40H1186c-52.3,0-54.6,18.9-54.6,43.4
	c0,33.3,7.1,40.7,69.5,40.7c53.5,0,58.3,0.8,58.3,12.5c0,10.5-9,11.4-17.8,11.4h-50.8c-12,0-17.8-1.1-17.9-15.5h-41.5v9.4
	c0,29.3,15.1,36.4,52.9,36.4h50.3c55.1,0,67.5-6,67.5-42.4C1301.8,503.7,1286.9,499.8,1222.4,500z"/>
<linearGradient id="SVGID_5_" gradientUnits="userSpaceOnUse" x1="745.6805" y1="582.396" x2="745.6805" y2="450.4583">
	<stop  offset="0" style="stop-color:#FFEFBC"/>
	<stop  offset="0.1142" style="stop-color:#F4E5B3"/>
	<stop  offset="0.2763" style="stop-color:#DDD19E"/>
	<stop  offset="0.467" style="stop-color:#BDB580"/>
	<stop  offset="0.6796" style="stop-color:#95945E"/>
	<stop  offset="0.9076" style="stop-color:#697238"/>
	<stop  offset="1" style="stop-color:#57652D"/>
</linearGradient>
<path class="st5" d="M1184.1,582.4c-38.6,0-49.7-7.5-49.7-33.3v-6.2h35.3c1.2,14.3,9.5,15.5,21,15.5h50.8c6.3,0,20.9,0,20.9-14.6
	c0-15.7-9.4-15.7-61.5-15.7c-63.5,0-66.3-8.4-66.3-37.6c0-21.6,0-40.2,51.4-40.2h57.9c45.7,0,49.2,14.6,49.2,36.8v1.1h-35.2
	c-0.7-10.3-5.2-14-23.3-14h-46c-17,0-18.9,9.5-18.9,13.6c0,6.2,1.5,10.8,8.6,13c5.8,1.8,15.6,2.1,33,2.1c3.4,0,15.2,0,15.2,0
	c62.8,0,72.2,5.2,72.2,40c0,33.4-9.6,39.3-64.3,39.3H1184.1z M242.4,582.4c-38.6,0-49.7-7.5-49.7-33.3v-6.2H228
	c1.2,14.3,9.5,15.5,21,15.5h50.8c6.3,0,20.9,0,20.9-14.6c0-15.7-9.4-15.7-61.5-15.7c-63.5,0-66.3-8.4-66.3-37.6
	c0-21.6,0-40.2,51.4-40.2h57.9c45.7,0,49.2,14.6,49.2,36.8v1.1h-35.2c-0.7-10.3-5.2-14-23.3-14h-46c-17,0-18.9,9.5-18.9,13.6
	c0,6.2,1.5,10.8,8.6,13c5.8,1.8,15.6,2.1,33,2.1c3.4,0,15.2,0,15.2,0c62.8,0,72.2,5.2,72.2,40c0,33.4-9.6,39.3-64.3,39.3H242.4z
	 M952.3,580.9v-129h109.9c40.3,0,45.8,21.8,45.8,43.2v11.6c0,12.1-3.4,40.2-35,40.2h-82.4c-1.8,0-3.2,1.4-3.2,3.2v30.8H952.3z
	 M990.6,479.2c-1.8,0-3.2,1.4-3.2,3.2v34c0,1.7,1.4,3.2,3.2,3.2h64.5c10.4,0,16.6-6.6,16.6-17.6v-5.2c0-11.7-6.8-17.6-20.2-17.6
	H990.6z M890.1,580.9l-12-22.3c-0.5-1-1.6-1.7-2.8-1.7h-84.1c-1.2,0-2.3,0.7-2.8,1.7l-11.3,22.2H738l69.8-129h50.2l70.9,129H890.1z
	 M832.9,477c-1.2,0-2.3,0.7-2.8,1.7l-26.2,50.8c-0.5,1-0.5,2.2,0.1,3.1c0.6,0.9,1.6,1.5,2.7,1.5h53.1c1.1,0,2.1-0.6,2.7-1.5
	c0.6-1,0.6-2.1,0.1-3.1l-26.9-50.8C835.1,477.6,834,477,832.9,477C832.9,477,832.9,477,832.9,477z M679,580.9v-13.1
	c0-16.1-5.5-22-20.2-22h-65.2c-1.8,0-3.2,1.4-3.2,3.2v32h-35.2v-129h122c26.6,0,37.4,10.7,37.4,37v8.6c0,16.8-3.2,26.1-20.7,30.2
	c-1.4,0.3-2.4,1.6-2.4,3.1v0.4c0,1.5,1.1,2.8,2.6,3.1c12.4,2.2,20,7.5,20,26.8v19.8H679z M593.6,479.2c-1.8,0-3.2,1.4-3.2,3.2v32.9
	c0,1.7,1.4,3.2,3.2,3.2h68.6c12.6,0,18.5-5.5,18.5-17.4v-4.5c0-16-11-17.4-22.2-17.4H593.6z M437.4,580.9v-98.5
	c0-1.8-1.4-3.2-3.2-3.2H379v-27.3h151.8v27.3h-55.1c-1.8,0-3.2,1.4-3.2,3.2v98.5H437.4z"/>
<linearGradient id="SVGID_6_" gradientUnits="userSpaceOnUse" x1="591.2224" y1="224.6581" x2="591.2224" y2="34.0493">
	<stop  offset="0" style="stop-color:#FFEFBC"/>
	<stop  offset="0.1142" style="stop-color:#F4E5B3"/>
	<stop  offset="0.2763" style="stop-color:#DDD19E"/>
	<stop  offset="0.467" style="stop-color:#BDB580"/>
	<stop  offset="0.6796" style="stop-color:#95945E"/>
	<stop  offset="0.9076" style="stop-color:#697238"/>
	<stop  offset="1" style="stop-color:#57652D"/>
</linearGradient>
<path class="st6" d="M700.1,53c-5.2,3.6-3.7,4.7-3.7,4.7l0,0l-9.2,11c0,0-5.5,0-7.4,6.3c-1.8,6.3-1.8,6.3-1.8,6.3s-1.8,6.3-5.5,14.2
	c-3.7,7.9-9.2-6.3-3.7,7.9c5.5,14.2,7.4,14.2,7.4,22.1c0,7.9,0,7.9,0,7.9s5.5-3.2,0,0c-5.5,3.2-5.5,3.2-5.5,3.2s-7.4-1.6-7.4-6.3
	c0-4.7,0-4.7,0-4.7l-1.8-9.5l-18.4,6.3l-14.7,3.2l-5.5,7.9l-7.4,6.3l-18.4,4.7c0,0-1.8,3.2-9.2,6.3c-7.4,3.2-12.9-3.2-16.6,3.2
	c-3.7,6.3-1.8-3.2-3.7,6.3c-1.8,9.5,0,17.4,0,17.4s-12.9-15.8-12.9-20.5c0-4.7,0-4.7,0-4.7l0,0l-16.6-1.6l-7.4,3.2
	c0,0-3.7-3.2-16.6,1.6c-12.9,4.7-12.9,4.7-12.9,4.7l-18.4,4.7l-7.4,6.3l1.8,7.9v7.9l-1.8,7.9l-11.1-6.3c-9.2,0-16.6-1.6-16.6-1.6
	h-11.1c-11.1,6.3-14.7,6.3-18.4,11.1c-3.7,4.7-11.1,6.3-11.1,6.3c9.2,1.6-5.5,1.6,9.2,1.6c14.7,0,1.8,0,14.7,0
	c12.9,0,1.8-3.2,20.3,1.6c18.4,4.7,18.4,4.7,18.4,4.7s9.2,1.6,14.7-1.6c5.5-3.2-5.5-1.6,5.5-3.2c11.1-1.6,18.4-1.6,18.4-1.6
	c12.9,11.1,3.7,11.1,12.9,11.1c9.2,0,11.1,0,18.4,1.6c7.4,1.6,11,1.6,16.6,1.6c5.5,0-22.1,9.5,5.5,0c27.6-9.5,16.6-3.2,27.6-9.5
	c11.1-6.3-1.8-3.2,11.1-6.3c12.9-3.2,11.1,0,20.3-6.3c9.2-6.3-7.4,1.6,9.2-6.3c16.6-7.9,16.6-7.9,16.6-7.9l0,0l-3.7,11.1l-3.7,7.9
	c14.7-6.3,14.7-6.3,14.7-6.3l20.3-9.5c0,0-20.3,6.3,1.8-6.3c22.1-12.6,29.5-14.2,29.5-14.2s-7.4-1.6,7.4-1.6c14.7,0,14.7,0,14.7,0
	l11.1,3.2l11.1,6.3l11,6.3c0,0,20.3,6.3,12.9-1.6c-7.4-7.9-9.2-7.9-11.1-14.2c-1.8-6.3-1.8-6.3-1.8-6.3l-3.7-12.6c0,0-3.7,0-9.2,0
	c-5.5,0-12.9-1.6-12.9-1.6l7.4-9.5c0,0,11.1-11.1,11.1-15.8c0-4.7-7.4-7.9-7.4-7.9l-12.9,3.2c0,0-7.4,4.7-7.4,0
	c0-4.7,5.5-15.8,5.5-15.8v-19c3.7-9.5,3.7-9.5,3.7-9.5l-9.2-11.1l-3.7-9.5l-11-15.8C711.1,34,709.3,46.7,700.1,53z"/>
<linearGradient id="SVGID_7_" gradientUnits="userSpaceOnUse" x1="1204.7458" y1="232.8938" x2="1204.7458" y2="154.3559">
	<stop  offset="0" style="stop-color:#FFEFBC"/>
	<stop  offset="0.1142" style="stop-color:#F4E5B3"/>
	<stop  offset="0.2763" style="stop-color:#DDD19E"/>
	<stop  offset="0.467" style="stop-color:#BDB580"/>
	<stop  offset="0.6796" style="stop-color:#95945E"/>
	<stop  offset="0.9076" style="stop-color:#697238"/>
	<stop  offset="1" style="stop-color:#57652D"/>
</linearGradient>
<path class="st7" d="M1104.5,155.1l4.8,9.4c0,0,6.3,4,11.1,5.4c4.8,1.3,23.8,2.7,23.8,2.7l7.9,2.7c6.3,6.7-6.3,5.4,6.3,6.7
	c12.7,1.3,12.7,1.3,12.7,1.3l4.8-5.4c6.3-5.4-3.2-5.4,6.3-5.4c9.5,0,9.5,0,9.5,0s-11.1-2.7,0,0c11.1,2.7,0,0,11.1,2.7
	c11.1,2.7,1.6-2.7,11.1,2.7c9.5,5.4,9.5,5.4,9.5,5.4l6.3,1.3c7.9,5.4,3.2,1.3,7.9,5.4c4.8,4-7.9,2.7,4.8,4c12.7,1.3-3.2,0,12.7,1.3
	c15.9,1.3,7.9,1.3,15.9,1.3c7.9,0,1.6-4,7.9,0c6.3,4-4.8-6.7,6.3,4c11.1,10.7,6.3,8,11.1,10.7c4.8,2.7-6.1,7.5,4.9,6.4
	c10.9-1,1.4-3.7,10.9-1c9.5,2.7,9.5,1.3,15.8,4c6.3,2.7,22.2,5.4,22.2,5.4c12.7,2.7-91.9,1.3-91.9,1.3s-52.3,0-65,1.3
	c-12.7,1.3-37.2,3.2-50.7,2.7c-13.5-0.5-15.9,0-30.1,0c-14.3,0-15.8,0-22.2,0c-6.3,0-4.8-1.3-12.7,0c-7.9,1.3-9.5,1.3-14.3,1.3
	c-4.8,0-4.8,0-4.8,0s-1.6-4,3.2-5.4c4.8-1.3-4.8-1.3,4.8-1.3c9.5,0,3.2,1.3,9.5,0c6.3-1.3-4.8,0,6.3-1.3c11.1-1.3,1.6,0,17.4-2.7
	c15.8-2.7,4.8-1.3,15.8-2.7c11.1-1.3-3.2,1.3,11.1-1.3c14.3-2.7,1.6-1.3,14.3-2.7c12.7-1.3,26.9-2.7,26.9-2.7l6.3-10.7
	c-15.8-1.3-6.3-2.7-15.8-1.3c-9.5,1.3-1.6,0-9.5,1.3c-7.9,1.3-6.3,1.3-14.3,1.3c-7.9,0-7.9,0-7.9,0v-6.7c0,0,7.9-6.7,3.2-8
	c-4.8-1.3-11.1-2.7-11.1-2.7c-7.9-4-7.9-4-7.9-4l0,0c0,0,0-4-6.3-6.7c-6.3-2.7,0-1.3-6.3-2.7c-6.3-1.3-6.3-1.3-6.3-1.3l0,0
	c0,0-3.2-6.7-7.9-8c-4.8-1.3-4.8-1.3-4.8-1.3s-1.6-4-9.5-4c-7.9,0-7.9,0-7.9,0l0,0C1061.7,157.8,1083.9,152.4,1104.5,155.1z"/>
<linearGradient id="SVGID_8_" gradientUnits="userSpaceOnUse" x1="241.8852" y1="220.7461" x2="241.8852" y2="170.0322">
	<stop  offset="0" style="stop-color:#FFEFBC"/>
	<stop  offset="0.1142" style="stop-color:#F4E5B3"/>
	<stop  offset="0.2763" style="stop-color:#DDD19E"/>
	<stop  offset="0.467" style="stop-color:#BDB580"/>
	<stop  offset="0.6796" style="stop-color:#95945E"/>
	<stop  offset="0.9076" style="stop-color:#697238"/>
	<stop  offset="1" style="stop-color:#57652D"/>
</linearGradient>
<path class="st8" d="M144.7,218.6l54.9-10.6c0,0-4.2,0,8.5-4.2c12.7-4.2,4.2,2.1,27.5-8.5c23.2-10.6,10.6-10.6,23.2-10.6
	c12.7,0,0,2.1,12.7,0c12.7-2.1,4.2,4.2,12.7-2.1c8.5-6.3,12.1-2.1,12.1-2.1l9.5-2.4c12.7-2.1,14.3-7.9,14.3-7.9l-3.2,1.6l9.5-1.9
	l10.6,8.5l2.1,8.5l-19,6.3l-8.5,2.1h-8.5l-10.6,4.2l2.1,10.6c0,0-12.7,10.6-19,10.6C269.4,220.7,144.7,218.6,144.7,218.6z"/>
<g>
	<path class="st9" d="M1398.4,474.3c8.7,0,16.2,3.1,22.4,9.3c6.2,6.2,9.3,13.7,9.3,22.5c0,8.8-3.1,16.3-9.3,22.5
		c-6.2,6.2-13.7,9.4-22.4,9.4c-8.8,0-16.3-3.1-22.6-9.3c-6.2-6.2-9.3-13.7-9.3-22.6c0-8.8,3.1-16.3,9.3-22.5
		C1382.1,477.4,1389.6,474.3,1398.4,474.3z M1398.4,478.6c-7.4,0-13.8,2.7-19.1,8c-5.3,5.4-7.9,11.8-7.9,19.4
		c0,7.6,2.6,14.1,7.9,19.5c5.3,5.4,11.6,8.1,19.1,8.1c7.4,0,13.8-2.7,19-8.1c5.2-5.4,7.9-11.9,7.9-19.5c0-7.6-2.6-14-7.9-19.4
		C1412.1,481.3,1405.8,478.6,1398.4,478.6z M1383.2,523.6V488h18.2c8,0,12,3.7,12,11.1c0,5.4-1.8,8.6-5.5,9.7c3.4,0.8,5.1,3.2,5.1,7
		v7.9h-7.5V517c0-3.4-1.7-5-5.2-5h-9.6v11.6H1383.2z M1390.7,505.6h9.6c4,0,5.9-1.9,5.9-5.7c0-3.7-1.8-5.5-5.5-5.5h-10V505.6z"/>
</g>
<g>
	<path class="st0" d="M90.4,705.9h28.4l20.9,38.8l20.9-38.8H189v60.3h-18v-43.3h-0.2l-24.2,43.3h-13.8l-24.2-43.3h-0.2v43.3h-18
		V705.9z"/>
	<path class="st0" d="M229.3,705.9h24.1l33.1,60.3h-20.6l-5.7-10.7h-37.5l-5.4,10.7h-20.7L229.3,705.9z M229.6,742.5h23.7l-12-22.7
		L229.6,742.5z"/>
	<path class="st0" d="M294.4,705.9h55.8c18.5,0,25,6.1,25,21v18.3c0,14.9-6.5,21-25,21h-55.8V705.9z M312.9,750.7h32.8
		c7.9,0,11-2.2,11-10.8v-8.2c0-8.6-3.1-10.8-11-10.8h-32.8V750.7z"/>
	<path class="st0" d="M385.4,705.9h66v14h-47.5v9.7h45V742h-45v9.7h48.6v14.5h-67V705.9z"/>
	<path class="st0" d="M505.7,705.9h18.5v60.3h-18.5V705.9z"/>
	<path class="st0" d="M535.6,705.9h28.6l34.7,43.8h0.2v-43.8h18.5v60.3H589l-34.7-43.8h-0.2v43.8h-18.5V705.9z"/>
	<path class="st0" d="M698,705.9h24.1l33.1,60.3h-20.6l-5.7-10.7h-37.5l-5.4,10.7h-20.7L698,705.9z M698.4,742.5H722l-12-22.7
		L698.4,742.5z"/>
	<path class="st0" d="M762.9,705.9h28.4l20.9,38.8l20.9-38.8h28.4v60.3h-18v-43.3h-0.2l-24.2,43.3h-13.8L781,722.9h-0.2v43.3h-18
		V705.9z"/>
	<path class="st0" d="M872.7,705.9h66v14h-47.5v9.7h45V742h-45v9.7h48.6v14.5h-67V705.9z"/>
	<path class="st0" d="M949.5,705.9h55.8c14.2,0,18.1,7.1,18.1,17.9v3.8c0,8.1-1.8,12.8-10.3,14.8v0.2c5.5,1,10.1,3.4,10.1,13.3v10.2
		h-18.5v-7.2c0-6.3-1.8-8.4-7.6-8.4H968v15.7h-18.5V705.9z M968,735.5h30.6c5,0,6.8-2,6.8-6.3v-2c0-5.3-2.7-6.3-8.5-6.3H968V735.5z"
		/>
	<path class="st0" d="M1034.6,705.9h18.5v60.3h-18.5V705.9z"/>
	<path class="st0" d="M1063.6,727c0-17.7,9.9-21.8,26.6-21.8h21.7c26.3,0,29.7,5.7,29.6,22.7H1123v-1.7c0-4.3-3.2-5.6-8.7-5.6h-20.2
		c-9.7,0-11.6,4.6-11.6,12.1v6.5c0,8.7,1.8,12.1,10.6,12.1h19.7c8.3,0,10.8-0.8,10.8-8.3h18.5v5.7c0,10.2-3.7,18.2-22.2,18.2h-29.8
		c-16.7,0-26.6-4.2-26.6-21.8V727z"/>
	<path class="st0" d="M1179.2,705.9h24.1l33.1,60.3h-20.6l-5.7-10.7h-37.5l-5.4,10.7h-20.7L1179.2,705.9z M1179.5,742.5h23.7
		l-12-22.7L1179.5,742.5z"/>
</g>
<g>
	<path d="M1447.5,703.6c0,2.2,0,4.5,0,6.7c-0.3,0-0.5,0.1-0.8,0.1c-32.9,0-65.7,0-98.6,0c-0.3,0-0.6,0-0.9,0c0,2.3,0,4.5,0,6.8
		c0.3,0,0.5,0,0.8,0c32.9,0,65.9,0,98.8,0c0.2,0,0.4,0,0.7,0c0,2.3,0,4.5,0,6.8c-0.2,0-0.4,0-0.5,0c-33,0-66.1,0-99.1,0
		c-0.2,0-0.4,0-0.6,0c0,2.3,0,4.5,0,6.8c0.3,0,0.6,0,0.9,0c32.8,0,65.7,0,98.5,0c0.3,0,0.6,0,0.9,0c0,2.2,0,4.5,0,6.7
		c-0.2,0-0.5,0-0.7,0c-11.2,0-22.3,0-33.5,0c-44.1,0-88.2,0-132.3,0c-0.2,0-0.4,0-0.6,0c0-15.8,0-31.6,0-47.4
		c55.7,0,111.4,0,167.1,0c0,2.2,0,4.5,0,6.7c-0.3,0-0.6,0-0.9,0c-32.8,0-65.7,0-98.5,0c-0.3,0-0.6,0-0.9,0c0,2.3,0,4.5,0,6.8
		c0.3,0,0.5,0,0.7,0c33,0,65.9,0,98.8,0C1447.1,703.7,1447.3,703.7,1447.5,703.6z M1328.1,732.2c0,0,0,0.1,0,0.1
		c0.5,0.4,1,0.7,1.4,1.1c-0.2,0.6-0.4,1.2-0.5,1.7c0,0,0.1,0,0.1,0c0.5-0.3,1-0.7,1.5-1.1c0.5,0.4,1,0.7,1.6,1.2
		c-0.2-0.7-0.4-1.3-0.6-1.9c0.5-0.4,1-0.7,1.5-1.1c0,0,0-0.1-0.1-0.1c-0.6,0-1.2,0-1.8,0c-0.2-0.6-0.4-1.2-0.6-1.9
		c-0.2,0.7-0.4,1.3-0.6,1.9C1329.3,732.2,1328.7,732.2,1328.1,732.2z M1295.5,735.3c0.6-0.5,1.1-0.8,1.6-1.2c0.5,0.4,1,0.7,1.6,1.2
		c-0.2-0.7-0.4-1.3-0.6-1.9c0.5-0.4,1-0.7,1.5-1.1c0,0,0-0.1,0-0.1c-0.6,0-1.2,0-1.8,0c-0.2-0.6-0.4-1.2-0.6-1.9
		c-0.2,0.7-0.4,1.3-0.6,1.9c-0.6,0-1.2,0-2,0c0.6,0.5,1.1,0.8,1.6,1.2C1295.9,734,1295.7,734.5,1295.5,735.3z M1306.6,735.3
		c0.6-0.5,1.1-0.8,1.6-1.2c0.5,0.4,1,0.7,1.6,1.2c-0.2-0.7-0.4-1.3-0.6-1.9c0.5-0.4,1-0.7,1.5-1.1c0,0,0-0.1-0.1-0.1
		c-0.6,0-1.2,0-1.8,0c-0.2-0.6-0.4-1.2-0.6-1.9c-0.2,0.7-0.4,1.3-0.6,1.9c-0.6,0-1.2,0-2,0c0.6,0.5,1.1,0.8,1.6,1.2
		C1307,734,1306.8,734.6,1306.6,735.3z M1341,732.2c-0.6,0-1.2,0-2,0c0.6,0.5,1.1,0.8,1.6,1.2c-0.2,0.6-0.4,1.2-0.6,1.9
		c0.6-0.4,1.1-0.8,1.6-1.2c0.5,0.4,1,0.7,1.6,1.1c-0.2-0.7-0.4-1.3-0.6-1.9c0.5-0.4,1-0.7,1.4-1.1c0,0,0-0.1-0.1-0.1
		c-0.6,0-1.2,0-1.8,0c-0.2-0.6-0.4-1.2-0.6-1.9C1341.4,731,1341.2,731.5,1341,732.2z M1335.4,727.4c-0.6,0-1.2,0-1.8,0
		c0,0,0,0.1,0,0.1c0.5,0.4,0.9,0.7,1.4,1.1c-0.2,0.6-0.4,1.2-0.6,1.9c0.6-0.5,1.1-0.8,1.6-1.2c0.5,0.4,1,0.7,1.6,1.2
		c-0.2-0.7-0.4-1.3-0.6-1.9c0.5-0.4,1-0.7,1.5-1.1c0,0,0-0.1,0-0.1c-0.6,0-1.2,0-1.8,0c-0.2-0.6-0.4-1.2-0.6-1.9
		C1335.8,726.2,1335.6,726.8,1335.4,727.4z M1313.8,729.4c0.5,0.4,1,0.7,1.5,1.1c0,0,0.1,0,0.1-0.1c-0.2-0.6-0.4-1.2-0.5-1.7
		c0.5-0.4,1-0.7,1.5-1.1c0,0,0-0.1-0.1-0.1c-0.6,0-1.2,0-1.8,0c-0.2-0.6-0.4-1.2-0.6-1.9c-0.2,0.7-0.4,1.3-0.6,1.9c-0.6,0-1.2,0-2,0
		c0.6,0.5,1.1,0.8,1.6,1.2c-0.2,0.6-0.4,1.2-0.6,1.7c0,0,0.1,0,0.1,0.1C1312.8,730.1,1313.3,729.7,1313.8,729.4z M1302.7,729.4
		c0.5,0.4,1,0.7,1.6,1.2c-0.2-0.7-0.4-1.3-0.6-1.9c0.5-0.4,1-0.7,1.5-1.1c0,0,0-0.1-0.1-0.1c-0.6,0-1.2,0-1.8,0
		c-0.2-0.6-0.4-1.2-0.6-1.9c-0.2,0.7-0.4,1.3-0.7,1.9c-0.6,0-1.2,0-1.9,0c0.6,0.5,1.1,0.8,1.6,1.2c-0.2,0.6-0.4,1.2-0.6,1.9
		C1301.6,730.1,1302.1,729.8,1302.7,729.4z M1321,735.3c-0.2-0.7-0.4-1.3-0.6-1.9c0.5-0.4,1-0.7,1.5-1.1c0,0,0-0.1,0-0.1
		c-0.6,0-1.2,0-1.8,0c-0.2-0.6-0.4-1.2-0.6-1.9c-0.2,0.7-0.4,1.3-0.6,1.9c-0.6,0-1.2,0-2,0c0.6,0.5,1.1,0.8,1.6,1.2
		c-0.2,0.6-0.4,1.2-0.5,1.7c0,0,0.1,0,0.1,0.1c0.5-0.3,1-0.7,1.5-1C1319.9,734.5,1320.4,734.8,1321,735.3z M1285.9,734.1
		c0.5,0.4,1,0.7,1.6,1.1c-0.2-0.7-0.4-1.3-0.6-1.9c0.5-0.4,1-0.7,1.5-1.1c0,0,0-0.1,0-0.1c-0.6,0-1.2,0-1.8,0
		c-0.2-0.6-0.4-1.2-0.6-1.9c-0.2,0.7-0.4,1.3-0.6,1.9c-0.6,0-1.2,0-1.8,0c0,0,0,0.1,0,0.1c0.5,0.4,1,0.7,1.4,1.1
		c-0.2,0.6-0.4,1.1-0.5,1.7c0,0,0.1,0.1,0.1,0.1C1285,734.8,1285.4,734.5,1285.9,734.1z M1323.3,730.5c0.6-0.4,1.1-0.8,1.6-1.2
		c0.5,0.4,1,0.7,1.6,1.1c-0.2-0.7-0.4-1.3-0.6-1.9c0.5-0.4,1-0.7,1.4-1.1c0,0,0-0.1,0-0.1c-0.6,0-1.2,0-1.8,0
		c-0.2-0.6-0.4-1.2-0.7-1.9c-0.2,0.7-0.4,1.3-0.6,1.9c-0.6,0-1.2,0-2,0c0.6,0.5,1.1,0.8,1.6,1.2
		C1323.7,729.2,1323.5,729.8,1323.3,730.5z M1291.5,725.5c-0.2,0.7-0.4,1.3-0.6,1.9c-0.6,0-1.2,0-2,0c0.6,0.5,1.1,0.8,1.6,1.2
		c-0.2,0.6-0.4,1.2-0.6,1.9c0.6-0.4,1.1-0.8,1.6-1.2c0.5,0.4,1,0.7,1.6,1.1c-0.2-0.7-0.4-1.3-0.6-1.9c0.5-0.4,1-0.7,1.4-1.1
		c0,0,0-0.1,0-0.1c-0.6,0-1.2,0-1.8,0C1292,726.8,1291.8,726.3,1291.5,725.5z M1285.9,724.6c0.5,0.4,1,0.7,1.6,1.2
		c-0.2-0.7-0.4-1.3-0.6-1.9c0.5-0.4,1-0.7,1.5-1.1c0,0,0-0.1-0.1-0.1c-0.6,0-1.2,0-1.8,0c-0.2-0.6-0.4-1.2-0.6-1.9
		c-0.3,0.7-0.4,1.3-0.7,1.9c-0.6,0-1.2,0-1.8,0c0,0,0,0.1,0,0.1c0.5,0.3,1,0.7,1.5,1.1c-0.2,0.6-0.4,1.2-0.6,1.9
		C1284.9,725.3,1285.4,725,1285.9,724.6z M1316.9,722.7c0,0,0,0.1-0.1,0.1c0.5,0.4,1,0.7,1.5,1.1c-0.2,0.6-0.4,1.2-0.6,1.9
		c0.6-0.4,1.1-0.8,1.6-1.2c0.5,0.4,1,0.7,1.6,1.2c-0.2-0.7-0.4-1.3-0.6-1.9c0.5-0.4,1-0.7,1.5-1.1c0,0,0-0.1-0.1-0.1
		c-0.6,0-1.2,0-1.8,0c-0.2-0.6-0.4-1.2-0.6-1.9c-0.2,0.7-0.4,1.3-0.6,1.9C1318.1,722.7,1317.5,722.7,1316.9,722.7z M1298.1,723.9
		c0.5-0.4,1-0.7,1.5-1.1c0,0-0.1-0.1-0.1-0.1c-0.6,0-1.2,0-1.8,0c-0.2-0.6-0.4-1.1-0.6-1.9c-0.2,0.7-0.4,1.3-0.6,1.9
		c-0.6,0-1.2,0-1.8,0c0,0,0,0.1,0,0.1c0.5,0.4,1,0.7,1.5,1.1c-0.2,0.6-0.4,1.2-0.6,1.7c0,0,0.1,0,0.1,0.1c0.5-0.4,1-0.7,1.5-1.1
		c0.5,0.4,1,0.7,1.5,1c0,0,0.1-0.1,0.1-0.1C1298.5,725,1298.3,724.5,1298.1,723.9z M1306.6,725.8c0.6-0.4,1.1-0.8,1.6-1.2
		c0.5,0.4,1,0.7,1.6,1.2c-0.2-0.7-0.4-1.3-0.6-1.9c0.5-0.4,1-0.7,1.5-1.1c0,0,0-0.1-0.1-0.1c-0.6,0-1.2,0-1.8,0
		c-0.2-0.6-0.4-1.2-0.6-1.9c-0.2,0.7-0.4,1.3-0.7,1.9c-0.6,0-1.2,0-2,0c0.6,0.5,1.1,0.8,1.6,1.2
		C1307,724.5,1306.8,725.1,1306.6,725.8z M1328.1,722.7c0,0,0,0.1-0.1,0.1c0.5,0.4,1,0.7,1.5,1.1c-0.2,0.6-0.4,1.2-0.6,1.9
		c0.6-0.5,1.1-0.8,1.6-1.2c0.5,0.4,1,0.7,1.5,1.1c0,0,0.1,0,0.1-0.1c-0.2-0.6-0.4-1.2-0.5-1.7c0.5-0.4,1-0.7,1.5-1.1
		c0,0,0-0.1,0-0.1c-0.6,0-1.2,0-1.8,0c-0.2-0.6-0.4-1.2-0.6-1.9c-0.2,0.7-0.4,1.3-0.6,1.9C1329.2,722.7,1328.7,722.7,1328.1,722.7z
		 M1341.7,724.6c0.5,0.4,1,0.7,1.6,1.2c-0.2-0.7-0.4-1.3-0.6-1.9c0.5-0.4,1-0.7,1.5-1.1c0,0,0-0.1,0-0.1c-0.6,0-1.2,0-1.8,0
		c-0.2-0.6-0.4-1.2-0.6-1.9c-0.2,0.7-0.4,1.3-0.6,1.9c-0.6,0-1.2,0-2,0c0.6,0.5,1.1,0.8,1.6,1.2c-0.2,0.6-0.4,1.2-0.6,1.9
		C1340.6,725.4,1341.1,725,1341.7,724.6z M1326.4,721C1326.5,720.9,1326.5,720.9,1326.4,721c-0.1-0.7-0.3-1.2-0.5-1.8
		c0.5-0.4,1-0.7,1.6-1.2c-0.8,0-1.4,0-2,0c-0.2-0.6-0.4-1.2-0.6-1.9c-0.2,0.7-0.4,1.3-0.6,1.9c-0.6,0-1.2,0-2,0
		c0.6,0.4,1.1,0.8,1.6,1.2c-0.2,0.6-0.4,1.2-0.6,1.9c0.6-0.4,1.1-0.8,1.6-1.2C1325.5,720.3,1325.9,720.6,1326.4,721z M1292.5,719.2
		c0.5-0.4,1-0.7,1.6-1.2c-0.8,0-1.4,0-2,0c-0.2-0.6-0.4-1.2-0.6-1.9c-0.2,0.7-0.4,1.3-0.6,1.9c-0.6,0-1.2,0-2,0
		c0.6,0.4,1.1,0.8,1.6,1.2c-0.2,0.6-0.4,1.2-0.6,1.9c0.6-0.4,1.1-0.8,1.6-1.2c0.5,0.4,1,0.7,1.6,1.1
		C1292.9,720.3,1292.7,719.8,1292.5,719.2z M1316.3,718.1c0,0,0-0.1,0-0.1c-0.6,0-1.2,0-1.8,0c-0.2-0.6-0.4-1.2-0.6-1.7
		c0,0-0.1,0-0.1,0c-0.2,0.6-0.4,1.1-0.6,1.8c-0.6,0-1.2,0-2,0c0.6,0.5,1.1,0.8,1.6,1.2c-0.2,0.6-0.4,1.2-0.5,1.7c0,0,0.1,0,0.1,0.1
		c0.5-0.3,1-0.7,1.5-1c0.5,0.4,1,0.7,1.6,1.1c-0.2-0.7-0.4-1.3-0.6-1.9C1315.3,718.8,1315.8,718.4,1316.3,718.1z M1335.1,719.1
		c-0.2,0.6-0.4,1.2-0.6,1.9c0.6-0.4,1.1-0.8,1.6-1.1c0.5,0.4,1,0.7,1.6,1.1c-0.2-0.7-0.4-1.3-0.6-1.9c0.5-0.4,1-0.7,1.5-1.1
		c0,0,0-0.1,0-0.1c-0.6,0-1.2,0-1.8,0c-0.2-0.6-0.4-1.2-0.6-1.9c-0.2,0.7-0.4,1.3-0.6,1.9c-0.6,0-1.2,0-2,0
		C1334.1,718.4,1334.5,718.8,1335.1,719.1z M1303.7,719.1c0.5-0.4,1-0.7,1.5-1.1c0,0,0-0.1-0.1-0.1c-0.6,0-1.2,0-1.8,0
		c-0.2-0.6-0.4-1.2-0.6-1.9c-0.2,0.7-0.4,1.3-0.7,1.9c-0.6,0-1.2,0-2,0c0.6,0.5,1.1,0.8,1.6,1.2c-0.2,0.6-0.4,1.2-0.6,1.9
		c0.6-0.4,1.1-0.8,1.6-1.2c0.5,0.4,1,0.7,1.6,1.2C1304.1,720.3,1303.9,719.8,1303.7,719.1z M1342.7,714.4c0.5-0.4,1-0.7,1.5-1.1
		c0,0,0-0.1-0.1-0.1c-0.6,0-1.2,0-1.8,0c-0.2-0.6-0.4-1.2-0.6-1.9c-0.2,0.7-0.4,1.3-0.6,1.9c-0.6,0-1.2,0-2,0
		c0.6,0.5,1.1,0.8,1.6,1.2c-0.2,0.6-0.4,1.2-0.6,1.9c0.6-0.4,1.1-0.8,1.6-1.2c0.5,0.4,1,0.7,1.6,1.2
		C1343.1,715.6,1342.9,715,1342.7,714.4z M1331.2,713.2c-0.2-0.6-0.4-1.2-0.7-1.9c-0.2,0.7-0.4,1.3-0.6,1.9c-0.6,0-1.2,0-2,0
		c0.6,0.5,1.1,0.8,1.6,1.2c-0.2,0.6-0.4,1.2-0.6,1.9c0.6-0.4,1.1-0.8,1.6-1.1c0.5,0.4,1,0.7,1.5,1c0,0,0.1-0.1,0.1-0.1
		c-0.2-0.6-0.4-1.1-0.5-1.7c0.5-0.4,1-0.7,1.6-1.2C1332.4,713.2,1331.8,713.2,1331.2,713.2z M1320,713.2c-0.2-0.6-0.4-1.2-0.6-1.7
		c0,0-0.1,0-0.1,0c-0.2,0.6-0.4,1.1-0.6,1.7c-0.6,0-1.2,0-2,0c0.6,0.5,1.1,0.8,1.6,1.2c-0.2,0.6-0.4,1.2-0.6,1.9
		c0.6-0.4,1.1-0.8,1.6-1.2c0.5,0.4,1,0.7,1.6,1.2c-0.2-0.7-0.4-1.3-0.6-1.9c0.5-0.4,1-0.7,1.6-1.2
		C1321.2,713.2,1320.6,713.2,1320,713.2z M1305.8,713.2c0,0,0,0.1,0,0.1c0.5,0.4,1,0.7,1.5,1.1c-0.2,0.6-0.4,1.2-0.6,1.9
		c0.6-0.4,1.1-0.8,1.6-1.2c0.5,0.4,1,0.7,1.6,1.2c-0.2-0.7-0.4-1.3-0.6-1.9c0.5-0.4,1-0.7,1.4-1.1c0,0,0-0.1-0.1-0.1
		c-0.6,0-1.2,0-1.8,0c-0.2-0.6-0.4-1.2-0.6-1.9c-0.2,0.7-0.4,1.3-0.7,1.9C1307,713.2,1306.4,713.2,1305.8,713.2z M1299.5,713.4
		c0,0,0-0.1,0-0.1c-0.6,0-1.2,0-1.8,0c-0.2-0.6-0.4-1.2-0.6-1.9c-0.2,0.7-0.4,1.3-0.6,1.9c-0.6,0-1.2,0-1.8,0c0,0,0,0.1,0,0.1
		c0.5,0.4,1,0.7,1.5,1.1c-0.2,0.6-0.4,1.2-0.6,1.9c0.6-0.4,1.1-0.8,1.6-1.1c0.5,0.4,1,0.7,1.5,1c0,0,0.1,0,0.1-0.1
		c-0.2-0.6-0.4-1.1-0.5-1.7C1298.6,714,1299.1,713.7,1299.5,713.4z M1286,711.5c0,0-0.1,0-0.1,0c-0.2,0.6-0.4,1.1-0.6,1.8
		c-0.6,0-1.2,0-2,0c0.6,0.4,1.1,0.8,1.6,1.2c-0.2,0.6-0.4,1.2-0.6,1.9c0.6-0.4,1.1-0.8,1.6-1.2c0.5,0.4,1,0.7,1.6,1.2
		c-0.2-0.7-0.4-1.3-0.6-1.9c0.5-0.4,1-0.7,1.5-1.1c0,0,0-0.1,0-0.1c-0.6,0-1.2,0-1.8,0C1286.4,712.6,1286.2,712.1,1286,711.5z
		 M1290.9,708.5c-0.6,0-1.2,0-2,0c0.6,0.5,1.1,0.8,1.6,1.2c-0.2,0.6-0.4,1.2-0.6,1.9c0.6-0.4,1.1-0.8,1.6-1.2c0.5,0.4,1,0.7,1.6,1.2
		c-0.2-0.7-0.4-1.3-0.6-1.9c0.5-0.4,1-0.7,1.6-1.2c-0.8,0-1.4,0-2,0c-0.2-0.6-0.4-1.2-0.6-1.9
		C1291.3,707.3,1291.1,707.9,1290.9,708.5z M1322.5,708.5c0,0,0,0.1,0,0.1c0.5,0.4,1,0.7,1.5,1.1c-0.2,0.6-0.4,1.2-0.6,1.9
		c0.6-0.5,1.1-0.8,1.6-1.2c0.5,0.4,1,0.7,1.6,1.1c-0.2-0.7-0.4-1.3-0.6-1.9c0.5-0.4,1-0.7,1.5-1.1c0,0,0-0.1-0.1-0.1
		c-0.6,0-1.2,0-1.8,0c-0.2-0.6-0.4-1.2-0.6-1.9c-0.2,0.7-0.4,1.3-0.6,1.9C1323.7,708.5,1323.1,708.5,1322.5,708.5z M1336.1,706.8
		c0,0-0.1,0-0.1,0c-0.2,0.6-0.4,1.1-0.6,1.7c-0.6,0-1.2,0-1.8,0c0,0,0,0.1,0,0.1c0.5,0.4,0.9,0.7,1.4,1.1c-0.2,0.6-0.4,1.2-0.6,1.9
		c0.6-0.4,1.1-0.8,1.6-1.2c0.5,0.4,1,0.7,1.6,1.2c-0.2-0.7-0.4-1.3-0.6-1.9c0.5-0.4,1-0.7,1.5-1.1c0,0,0-0.1,0-0.1
		c-0.6,0-1.2,0-1.8,0C1336.5,707.9,1336.3,707.3,1336.1,706.8z M1301,711.6c0.6-0.4,1.1-0.8,1.6-1.2c0.5,0.4,1,0.7,1.6,1.1
		c-0.2-0.7-0.4-1.3-0.6-1.9c0.5-0.4,1-0.7,1.5-1.1c0,0,0-0.1-0.1-0.1c-0.6,0-1.2,0-1.8,0c-0.2-0.6-0.4-1.2-0.6-1.9
		c-0.2,0.7-0.4,1.3-0.7,1.9c-0.6,0-1.2,0-1.9,0c0.6,0.4,1.1,0.8,1.6,1.2C1301.4,710.3,1301.3,710.9,1301,711.6z M1321.8,703.9
		c0,0,0-0.1,0-0.1c-0.6,0-1.2,0-1.8,0c-0.2-0.6-0.4-1.2-0.6-1.9c-0.2,0.7-0.4,1.3-0.7,1.9c-0.6,0-1.2,0-1.9,0
		c0.6,0.4,1.1,0.8,1.6,1.2c-0.2,0.6-0.4,1.2-0.6,1.9c0.6-0.4,1.1-0.8,1.6-1.2c0.5,0.4,1,0.7,1.6,1.2c-0.2-0.7-0.4-1.3-0.6-1.9
		C1320.9,704.6,1321.4,704.2,1321.8,703.9z M1314.8,709.7c0.5-0.4,1-0.7,1.6-1.2c-0.8,0-1.4,0-2,0c-0.2-0.6-0.4-1.2-0.6-1.7
		c0,0-0.1,0-0.1,0c-0.2,0.6-0.4,1.1-0.6,1.8c-0.6,0-1.2,0-2,0c0.6,0.5,1.1,0.8,1.6,1.2c-0.2,0.6-0.4,1.2-0.5,1.7c0,0,0.1,0,0.1,0.1
		c0.5-0.4,1-0.7,1.5-1.1c0.5,0.4,1,0.7,1.5,1c0,0,0.1-0.1,0.1-0.1C1315.2,710.8,1315,710.3,1314.8,709.7z M1288.4,703.9
		c0,0,0-0.1,0-0.1c-0.6,0-1.2,0-1.8,0c-0.2-0.6-0.4-1.2-0.6-1.9c-0.2,0.7-0.4,1.3-0.6,1.9c-0.6,0-1.2,0-1.9,0
		c0.6,0.4,1.1,0.8,1.6,1.2c-0.2,0.6-0.4,1.2-0.6,1.9c0.6-0.4,1.1-0.8,1.6-1.1c0.5,0.4,1,0.7,1.6,1.1c-0.2-0.7-0.4-1.3-0.6-1.9
		C1287.5,704.6,1287.9,704.2,1288.4,703.9z M1329.5,704.9c-0.2,0.6-0.4,1.2-0.6,1.9c0.6-0.4,1.1-0.8,1.6-1.1c0.5,0.4,1,0.7,1.5,1.1
		c0,0,0.1-0.1,0.1-0.1c-0.2-0.6-0.4-1.1-0.5-1.7c0.5-0.4,1-0.7,1.4-1.1c0,0,0-0.1,0-0.1c-0.6,0-1.2,0-1.8,0
		c-0.2-0.6-0.4-1.2-0.7-1.9c-0.2,0.7-0.4,1.3-0.6,1.9c-0.6,0-1.2,0-1.8,0c0,0,0,0.1,0,0.1C1328.5,704.2,1329,704.6,1329.5,704.9z
		 M1298.1,704.9c0.5-0.4,1-0.7,1.4-1.1c0,0,0-0.1,0-0.1c-0.6,0-1.2,0-1.8,0c-0.2-0.6-0.4-1.2-0.6-1.7c0,0-0.1,0-0.1,0
		c-0.2,0.6-0.4,1.2-0.6,1.8c-0.6,0-1.2,0-1.9,0c0.6,0.5,1.1,0.8,1.6,1.2c-0.2,0.6-0.4,1.2-0.6,1.9c0.6-0.4,1.1-0.8,1.6-1.1
		c0.5,0.4,1,0.7,1.5,1c0,0,0.1-0.1,0.1-0.1C1298.5,706.1,1298.3,705.5,1298.1,704.9z M1343.1,706.7c0,0,0.1,0,0.1,0
		c-0.2-0.6-0.4-1.2-0.5-1.8c0.5-0.4,1-0.7,1.4-1.1c0,0,0-0.1,0-0.1c-0.6,0-1.2,0-1.8,0c-0.2-0.6-0.4-1.2-0.6-1.9
		c-0.2,0.7-0.4,1.3-0.6,1.9c-0.6,0-1.2,0-1.9,0c0.6,0.4,1.1,0.8,1.6,1.2c-0.2,0.6-0.4,1.2-0.6,1.9c0.6-0.4,1.1-0.8,1.6-1.2
		C1342.2,706,1342.6,706.4,1343.1,706.7z M1307.6,703.8c-0.6,0-1.2,0-1.9,0c0.6,0.4,1.1,0.8,1.6,1.2c-0.2,0.6-0.4,1.2-0.6,1.9
		c0.6-0.4,1.1-0.8,1.6-1.1c0.5,0.4,1,0.7,1.6,1.1c-0.2-0.7-0.4-1.3-0.6-1.9c0.5-0.4,1-0.7,1.4-1.1c0,0,0-0.1-0.1-0.1
		c-0.6,0-1.2,0-1.8,0c-0.2-0.6-0.4-1.2-0.6-1.9C1308,702.5,1307.8,703.1,1307.6,703.8z M1313.8,697.1c-0.3,0.7-0.5,1.3-0.7,1.9
		c-0.6,0-1.2,0-1.9,0c0.6,0.5,1.1,0.8,1.6,1.2c-0.2,0.6-0.4,1.2-0.6,1.9c0.6-0.4,1.1-0.8,1.6-1.1c0.5,0.4,1,0.7,1.6,1.2
		c-0.2-0.7-0.4-1.3-0.6-1.9c0.5-0.4,1-0.7,1.4-1.1c0,0,0-0.1,0-0.1c-0.6,0-1.2,0-1.8,0C1314.2,698.4,1314,697.8,1313.8,697.1z
		 M1335.4,699c-0.6,0-1.2,0-1.9,0c0.6,0.4,1.1,0.8,1.6,1.2c-0.2,0.6-0.4,1.2-0.6,1.9c0.6-0.4,1.1-0.8,1.6-1.2c0.5,0.4,1,0.7,1.6,1.2
		c-0.2-0.7-0.4-1.3-0.6-1.9c0.5-0.4,1-0.7,1.5-1.1c0,0,0-0.1,0-0.1c-0.6,0-1.2,0-1.8,0c-0.2-0.6-0.4-1.2-0.6-1.9
		C1335.8,697.8,1335.7,698.4,1335.4,699z M1324.9,697.1c-0.2,0.7-0.4,1.3-0.7,1.9c-0.6,0-1.2,0-1.9,0c0.6,0.4,1.1,0.8,1.6,1.2
		c-0.2,0.6-0.4,1.2-0.6,1.9c0.6-0.4,1.1-0.8,1.6-1.1c0.5,0.4,1,0.7,1.6,1.2c-0.2-0.7-0.4-1.3-0.6-1.9c0.5-0.4,1-0.7,1.4-1.1
		c0,0,0-0.1-0.1-0.1c-0.6,0-1.2,0-1.8,0C1325.4,698.4,1325.2,697.8,1324.9,697.1z M1301.6,700.2c-0.2,0.6-0.4,1.2-0.6,1.9
		c0.6-0.4,1.1-0.8,1.6-1.1c0.5,0.4,1,0.7,1.6,1.2c-0.2-0.7-0.4-1.3-0.6-1.9c0.5-0.4,1-0.7,1.5-1.1c0,0,0-0.1-0.1-0.1
		c-0.6,0-1.2,0-1.8,0c-0.2-0.6-0.4-1.2-0.6-1.9c-0.2,0.7-0.4,1.3-0.7,1.9c-0.6,0-1.2,0-2,0C1300.6,699.5,1301.1,699.8,1301.6,700.2z
		 M1290.9,699c-0.6,0-1.2,0-2,0c0.6,0.4,1.1,0.8,1.6,1.2c-0.2,0.6-0.4,1.2-0.6,1.9c0.6-0.4,1.1-0.8,1.6-1.2c0.5,0.4,1,0.7,1.6,1.2
		c-0.2-0.7-0.4-1.3-0.6-1.9c0.5-0.4,1-0.7,1.4-1.1c0,0,0-0.1,0-0.1c-0.6,0-1.2,0-1.8,0c-0.2-0.6-0.4-1.2-0.7-1.9
		C1291.3,697.8,1291.1,698.4,1290.9,699z M1341.7,692.4c-0.2,0.7-0.4,1.3-0.7,1.9c-0.6,0-1.2,0-1.9,0c0.6,0.4,1.1,0.8,1.6,1.2
		c-0.2,0.6-0.4,1.2-0.6,1.9c0.6-0.4,1.1-0.8,1.6-1.2c0.5,0.4,1,0.7,1.6,1.1c-0.2-0.7-0.4-1.3-0.6-1.9c0.5-0.4,1-0.7,1.4-1.1
		c0,0,0-0.1,0-0.1c-0.6,0-1.2,0-1.8,0C1342.1,693.7,1341.9,693.1,1341.7,692.4z M1333.1,694.3c-0.8,0-1.3,0-2,0
		c-0.2-0.6-0.4-1.2-0.6-1.9c-0.3,0.7-0.5,1.3-0.7,1.9c-0.6,0-1.2,0-1.9,0c0.6,0.4,1.1,0.8,1.6,1.2c-0.2,0.6-0.4,1.2-0.6,1.9
		c0.6-0.4,1.1-0.8,1.6-1.1c0.5,0.4,1,0.7,1.6,1.1c-0.2-0.7-0.4-1.3-0.6-1.9C1332.1,695.1,1332.5,694.7,1333.1,694.3z M1318.7,694.3
		c-0.6,0-1.2,0-1.9,0c0.6,0.4,1.1,0.8,1.5,1.2c-0.2,0.6-0.4,1.2-0.6,1.9c0.6-0.4,1.1-0.8,1.6-1.2c0.5,0.4,1,0.7,1.6,1.2
		c-0.2-0.7-0.4-1.3-0.6-1.9c0.5-0.4,1-0.7,1.6-1.2c-0.8,0-1.4,0-2,0c-0.2-0.6-0.4-1.2-0.7-1.9
		C1319.1,693.1,1318.9,693.7,1318.7,694.3z M1308.2,692.4c-0.3,0.7-0.4,1.3-0.7,1.9c-0.6,0-1.2,0-1.9,0c0.6,0.4,1.1,0.8,1.6,1.2
		c-0.2,0.6-0.4,1.2-0.6,1.9c0.6-0.4,1.1-0.8,1.6-1.1c0.5,0.4,1,0.7,1.6,1.1c-0.2-0.7-0.4-1.3-0.6-1.9c0.5-0.4,1-0.7,1.4-1.1
		c0,0,0-0.1,0-0.1c-0.6,0-1.2,0-1.8,0C1308.7,693.7,1308.5,693.1,1308.2,692.4z M1284.4,697.2
		C1284.4,697.2,1284.4,697.2,1284.4,697.2c0.6-0.3,1.1-0.6,1.6-1c0.5,0.4,1,0.7,1.6,1.2c-0.2-0.7-0.4-1.3-0.6-1.9
		c0.5-0.4,1-0.7,1.6-1.2c-0.8,0-1.4,0-2,0c-0.2-0.6-0.4-1.2-0.7-1.9c-0.2,0.7-0.4,1.3-0.7,1.9c-0.6,0-1.2,0-1.9,0
		c0.6,0.4,1.1,0.8,1.5,1.2C1284.7,696.1,1284.5,696.6,1284.4,697.2z M1298.5,697.3c0,0,0.1,0,0.1-0.1c-0.2-0.6-0.4-1.2-0.5-1.7
		c0.5-0.4,1-0.7,1.6-1.2c-0.8,0-1.4,0-2,0c-0.2-0.6-0.4-1.2-0.6-1.9c-0.3,0.7-0.5,1.3-0.7,1.9c-0.6,0-1.2,0-1.9,0
		c0.6,0.4,1.1,0.8,1.6,1.2c-0.2,0.6-0.4,1.2-0.6,1.9c0.6-0.5,1.1-0.8,1.6-1.2C1297.6,696.6,1298.1,696.9,1298.5,697.3z"/>
	<path class="st10" d="M1447.5,764.6c0,2.3,0,4.5,0,6.8c-0.3,0-0.5,0-0.8,0c-55.2,0-110.4,0-165.6,0c-0.3,0-0.5,0-0.8,0
		c0-2.3,0-4.5,0-6.8c0.2,0,0.4,0,0.6,0c55.3,0,110.6,0,165.9,0C1447.1,764.5,1447.3,764.6,1447.5,764.6z"/>
	<path class="st10" d="M1447.5,751c0,2.3,0,4.5,0,6.8c-0.2,0-0.5,0-0.7,0c-55.2,0-110.5,0-165.7,0c-0.2,0-0.5,0-0.7,0
		c0-2.3,0-4.5,0-6.8c0.2,0,0.4,0,0.7,0c55.3,0,110.5,0,165.8,0C1447.1,751,1447.3,751,1447.5,751z"/>
	<path d="M1447.5,751c-0.2,0-0.4,0-0.7,0c-55.3,0-110.5,0-165.8,0c-0.2,0-0.4,0-0.7,0c0-2.2,0-4.5,0-6.7c0.2,0,0.4-0.1,0.7-0.1
		c55.3,0,110.6,0,165.8,0c0.2,0,0.4,0,0.7,0.1C1447.5,746.6,1447.5,748.8,1447.5,751z"/>
	<path class="st10" d="M1447.5,744.3c-0.2,0-0.4-0.1-0.7-0.1c-55.3,0-110.6,0-165.8,0c-0.2,0-0.4,0-0.7,0.1c0-2.3,0-4.5,0-6.8
		c0.2,0,0.4,0,0.6,0c44.1,0,88.2,0,132.3,0c11.2,0,22.3,0,33.5,0c0.2,0,0.5,0,0.7,0C1447.5,739.8,1447.5,742.1,1447.5,744.3z"/>
	<path d="M1280.4,771.4c0.3,0,0.5,0,0.8,0c55.2,0,110.4,0,165.6,0c0.3,0,0.5,0,0.8,0c0,2.2,0,4.5,0,6.7c-55.7,0-111.4,0-167.1,0
		C1280.4,775.9,1280.4,773.6,1280.4,771.4z"/>
	<path d="M1280.4,757.9c0.2,0,0.5,0,0.7,0c55.2,0,110.5,0,165.7,0c0.2,0,0.5,0,0.7,0c0,2.2,0,4.5,0,6.7c-0.2,0-0.4,0-0.6,0
		c-55.3,0-110.6,0-165.9,0c-0.2,0-0.4,0-0.6,0C1280.4,762.3,1280.4,760.1,1280.4,757.9z"/>
	<path class="st10" d="M1447.5,703.6c-0.2,0-0.4,0-0.7,0c-32.9,0-65.9,0-98.8,0c-0.2,0-0.5,0-0.7,0c0-2.3,0-4.5,0-6.8
		c0.3,0,0.6,0,0.9,0c32.8,0,65.7,0,98.5,0c0.3,0,0.6,0,0.9,0C1447.5,699.1,1447.5,701.4,1447.5,703.6z"/>
	<path class="st10" d="M1447.5,730.8c-0.3,0-0.6,0-0.9,0c-32.8,0-65.7,0-98.5,0c-0.3,0-0.6,0-0.9,0c0-2.3,0-4.5,0-6.8
		c0.2,0,0.4,0,0.6,0c33,0,66.1,0,99.1,0c0.2,0,0.4,0,0.5,0C1447.5,726.3,1447.5,728.5,1447.5,730.8z"/>
	<path class="st10" d="M1447.5,717.2c-0.2,0-0.4,0-0.7,0c-32.9,0-65.9,0-98.8,0c-0.2,0-0.5,0-0.8,0c0-2.3,0-4.5,0-6.8
		c0.3,0,0.6,0,0.9,0c32.9,0,65.7,0,98.6,0c0.3,0,0.5,0,0.8-0.1C1447.5,712.6,1447.5,714.9,1447.5,717.2z"/>
	<path class="st10" d="M1328.1,732.2c0.6,0,1.2,0,1.8,0c0.2-0.6,0.4-1.2,0.6-1.9c0.2,0.7,0.4,1.3,0.6,1.9c0.6,0,1.2,0,1.8,0
		c0,0,0,0.1,0.1,0.1c-0.5,0.4-1,0.7-1.5,1.1c0.2,0.6,0.4,1.2,0.6,1.9c-0.6-0.4-1.1-0.8-1.6-1.2c-0.5,0.4-1,0.7-1.5,1.1
		c0,0-0.1,0-0.1,0c0.2-0.6,0.4-1.1,0.5-1.7c-0.5-0.4-1-0.7-1.4-1.1C1328,732.2,1328.1,732.2,1328.1,732.2z"/>
	<path class="st10" d="M1295.5,735.3c0.2-0.7,0.4-1.3,0.6-1.9c-0.5-0.4-1-0.7-1.6-1.2c0.8,0,1.3,0,2,0c0.2-0.6,0.4-1.2,0.6-1.9
		c0.2,0.7,0.4,1.3,0.6,1.9c0.6,0,1.2,0,1.8,0c0,0,0,0.1,0,0.1c-0.5,0.4-0.9,0.7-1.5,1.1c0.2,0.6,0.4,1.2,0.6,1.9
		c-0.6-0.4-1.1-0.8-1.6-1.2C1296.6,734.5,1296.1,734.8,1295.5,735.3z"/>
	<path class="st10" d="M1306.6,735.3c0.2-0.7,0.4-1.3,0.6-1.9c-0.5-0.4-1-0.7-1.6-1.2c0.8,0,1.4,0,2,0c0.2-0.6,0.4-1.2,0.6-1.9
		c0.2,0.7,0.4,1.3,0.6,1.9c0.6,0,1.2,0,1.8,0c0,0,0,0.1,0.1,0.1c-0.5,0.3-0.9,0.7-1.5,1.1c0.2,0.6,0.4,1.2,0.6,1.9
		c-0.6-0.4-1.1-0.8-1.6-1.2C1307.7,734.5,1307.2,734.8,1306.6,735.3z"/>
	<path class="st10" d="M1341,732.2c0.2-0.6,0.4-1.2,0.6-1.9c0.2,0.7,0.4,1.3,0.6,1.9c0.6,0,1.2,0,1.8,0c0,0,0,0.1,0.1,0.1
		c-0.5,0.4-0.9,0.7-1.4,1.1c0.2,0.6,0.4,1.2,0.6,1.9c-0.6-0.4-1.1-0.8-1.6-1.1c-0.5,0.4-1,0.7-1.6,1.2c0.2-0.7,0.4-1.3,0.6-1.9
		c-0.5-0.4-1-0.7-1.6-1.2C1339.8,732.2,1340.4,732.2,1341,732.2z"/>
	<path class="st10" d="M1335.4,727.4c0.2-0.6,0.4-1.2,0.6-1.9c0.2,0.7,0.4,1.3,0.6,1.9c0.6,0,1.2,0,1.8,0c0,0,0,0.1,0,0.1
		c-0.5,0.4-1,0.7-1.5,1.1c0.2,0.6,0.4,1.2,0.6,1.9c-0.6-0.4-1.1-0.8-1.6-1.2c-0.5,0.4-1,0.7-1.6,1.2c0.2-0.7,0.4-1.3,0.6-1.9
		c-0.5-0.4-1-0.7-1.4-1.1c0,0,0-0.1,0-0.1C1334.2,727.4,1334.8,727.4,1335.4,727.4z"/>
	<path class="st10" d="M1313.8,729.4c-0.5,0.4-1,0.7-1.5,1.1c0,0-0.1,0-0.1-0.1c0.2-0.6,0.4-1.1,0.6-1.7c-0.5-0.4-1-0.7-1.6-1.2
		c0.8,0,1.4,0,2,0c0.2-0.6,0.4-1.2,0.6-1.9c0.2,0.7,0.4,1.3,0.6,1.9c0.6,0,1.2,0,1.8,0c0,0,0,0.1,0.1,0.1c-0.5,0.3-0.9,0.7-1.5,1.1
		c0.2,0.6,0.4,1.2,0.5,1.7c0,0-0.1,0-0.1,0.1C1314.8,730.1,1314.3,729.7,1313.8,729.4z"/>
	<path class="st10" d="M1302.7,729.4c-0.5,0.4-1,0.7-1.6,1.2c0.2-0.7,0.4-1.3,0.6-1.9c-0.5-0.4-1-0.7-1.6-1.2c0.7,0,1.3,0,1.9,0
		c0.2-0.6,0.4-1.2,0.7-1.9c0.2,0.7,0.4,1.3,0.6,1.9c0.6,0,1.2,0,1.8,0c0,0,0,0.1,0.1,0.1c-0.5,0.4-1,0.7-1.5,1.1
		c0.2,0.6,0.4,1.2,0.6,1.9C1303.7,730.1,1303.2,729.7,1302.7,729.4z"/>
	<path class="st10" d="M1321,735.3c-0.6-0.4-1.1-0.8-1.6-1.2c-0.5,0.3-1,0.7-1.5,1c0,0-0.1,0-0.1-0.1c0.2-0.5,0.3-1.1,0.5-1.7
		c-0.5-0.4-1-0.7-1.6-1.2c0.8,0,1.4,0,2,0c0.2-0.6,0.4-1.2,0.6-1.9c0.2,0.7,0.4,1.3,0.6,1.9c0.6,0,1.2,0,1.8,0c0,0,0,0.1,0,0.1
		c-0.5,0.3-1,0.7-1.5,1.1C1320.6,733.9,1320.8,734.5,1321,735.3z"/>
	<path class="st10" d="M1285.9,734.1c-0.5,0.4-1,0.7-1.4,1c0,0-0.1-0.1-0.1-0.1c0.2-0.5,0.3-1.1,0.5-1.7c-0.5-0.4-1-0.7-1.4-1.1
		c0,0,0-0.1,0-0.1c0.6,0,1.2,0,1.8,0c0.2-0.6,0.4-1.2,0.6-1.9c0.2,0.7,0.4,1.3,0.6,1.9c0.6,0,1.2,0,1.8,0c0,0,0,0.1,0,0.1
		c-0.5,0.4-1,0.7-1.5,1.1c0.2,0.6,0.4,1.2,0.6,1.9C1287,734.8,1286.5,734.5,1285.9,734.1z"/>
	<path class="st10" d="M1323.3,730.5c0.2-0.7,0.4-1.3,0.6-1.9c-0.5-0.4-1-0.7-1.6-1.2c0.8,0,1.4,0,2,0c0.2-0.6,0.4-1.2,0.6-1.9
		c0.2,0.7,0.4,1.3,0.7,1.9c0.6,0,1.2,0,1.8,0c0,0,0,0.1,0,0.1c-0.5,0.4-0.9,0.7-1.4,1.1c0.2,0.6,0.4,1.2,0.6,1.9
		c-0.6-0.4-1.1-0.8-1.6-1.1C1324.4,729.7,1323.9,730.1,1323.3,730.5z"/>
	<path class="st10" d="M1291.5,725.5c0.2,0.7,0.4,1.3,0.6,1.9c0.6,0,1.2,0,1.8,0c0,0,0,0.1,0,0.1c-0.5,0.4-0.9,0.7-1.4,1.1
		c0.2,0.6,0.4,1.2,0.6,1.9c-0.6-0.4-1.1-0.8-1.6-1.1c-0.5,0.4-1,0.7-1.6,1.2c0.2-0.7,0.4-1.3,0.6-1.9c-0.5-0.4-1-0.7-1.6-1.2
		c0.8,0,1.4,0,2,0C1291.1,726.8,1291.3,726.2,1291.5,725.5z"/>
	<path class="st10" d="M1285.9,724.6c-0.5,0.4-1,0.7-1.6,1.2c0.2-0.7,0.4-1.3,0.6-1.9c-0.5-0.4-1-0.7-1.5-1.1c0,0,0-0.1,0-0.1
		c0.6,0,1.2,0,1.8,0c0.2-0.6,0.4-1.2,0.7-1.9c0.2,0.7,0.4,1.3,0.6,1.9c0.6,0,1.2,0,1.8,0c0,0,0,0.1,0.1,0.1c-0.5,0.4-1,0.7-1.5,1.1
		c0.2,0.6,0.4,1.2,0.6,1.9C1286.9,725.3,1286.4,725,1285.9,724.6z"/>
	<path class="st10" d="M1316.9,722.7c0.6,0,1.2,0,1.8,0c0.2-0.6,0.4-1.2,0.6-1.9c0.2,0.7,0.4,1.3,0.6,1.9c0.6,0,1.2,0,1.8,0
		c0,0,0,0.1,0.1,0.1c-0.5,0.4-1,0.7-1.5,1.1c0.2,0.6,0.4,1.2,0.6,1.9c-0.6-0.4-1.1-0.8-1.6-1.2c-0.5,0.4-1,0.7-1.6,1.2
		c0.2-0.7,0.4-1.3,0.6-1.9c-0.5-0.4-1-0.7-1.5-1.1C1316.9,722.8,1316.9,722.7,1316.9,722.7z"/>
	<path class="st10" d="M1298.1,723.9c0.2,0.6,0.4,1.1,0.5,1.7c0,0-0.1,0.1-0.1,0.1c-0.5-0.3-1-0.7-1.5-1c-0.5,0.4-1,0.7-1.5,1.1
		c0,0-0.1,0-0.1-0.1c0.2-0.6,0.4-1.1,0.6-1.7c-0.5-0.4-1-0.7-1.5-1.1c0,0,0-0.1,0-0.1c0.6,0,1.2,0,1.8,0c0.2-0.6,0.4-1.2,0.6-1.9
		c0.2,0.7,0.4,1.3,0.6,1.9c0.6,0,1.2,0,1.8,0c0,0,0.1,0.1,0.1,0.1C1299.1,723.1,1298.6,723.5,1298.1,723.9z"/>
	<path class="st10" d="M1306.6,725.8c0.2-0.7,0.4-1.3,0.6-1.9c-0.5-0.4-1-0.7-1.6-1.2c0.8,0,1.4,0,2,0c0.2-0.6,0.4-1.2,0.7-1.9
		c0.2,0.7,0.4,1.3,0.6,1.9c0.6,0,1.2,0,1.8,0c0,0,0,0.1,0.1,0.1c-0.5,0.4-1,0.7-1.5,1.1c0.2,0.6,0.4,1.2,0.6,1.9
		c-0.6-0.4-1.1-0.8-1.6-1.2C1307.7,725,1307.2,725.3,1306.6,725.8z"/>
	<path class="st10" d="M1328.1,722.7c0.6,0,1.2,0,1.8,0c0.2-0.6,0.4-1.2,0.6-1.9c0.2,0.7,0.4,1.3,0.6,1.9c0.6,0,1.2,0,1.8,0
		c0,0,0,0.1,0,0.1c-0.5,0.4-0.9,0.7-1.5,1.1c0.2,0.6,0.4,1.2,0.5,1.7c0,0-0.1,0-0.1,0.1c-0.5-0.3-0.9-0.7-1.5-1.1
		c-0.5,0.4-1,0.7-1.6,1.2c0.2-0.7,0.4-1.3,0.6-1.9c-0.5-0.4-1-0.7-1.5-1.1C1328,722.8,1328.1,722.7,1328.1,722.7z"/>
	<path class="st10" d="M1341.7,724.6c-0.5,0.4-1,0.7-1.6,1.2c0.2-0.7,0.4-1.3,0.6-1.9c-0.5-0.4-1-0.7-1.6-1.2c0.8,0,1.4,0,2,0
		c0.2-0.6,0.4-1.2,0.6-1.9c0.2,0.7,0.4,1.3,0.6,1.9c0.6,0,1.2,0,1.8,0c0,0,0,0.1,0,0.1c-0.5,0.4-0.9,0.7-1.5,1.1
		c0.2,0.6,0.4,1.2,0.6,1.9C1342.7,725.3,1342.2,725,1341.7,724.6z"/>
	<path class="st10" d="M1326.4,721c-0.5-0.3-1-0.7-1.5-1.1c-0.5,0.4-1,0.7-1.6,1.2c0.2-0.7,0.4-1.3,0.6-1.9c-0.5-0.4-1-0.7-1.6-1.2
		c0.7,0,1.3,0,2,0c0.2-0.6,0.4-1.2,0.6-1.9c0.2,0.7,0.4,1.3,0.6,1.9c0.6,0,1.2,0,2,0c-0.6,0.5-1.1,0.8-1.6,1.2
		C1326.2,719.7,1326.3,720.3,1326.4,721C1326.5,720.9,1326.5,720.9,1326.4,721z"/>
	<path class="st10" d="M1292.5,719.2c0.2,0.6,0.4,1.2,0.6,1.9c-0.6-0.4-1.1-0.8-1.6-1.1c-0.5,0.4-1,0.7-1.6,1.2
		c0.2-0.7,0.4-1.3,0.6-1.9c-0.5-0.4-1-0.7-1.6-1.2c0.7,0,1.3,0,2,0c0.2-0.6,0.4-1.2,0.6-1.9c0.2,0.7,0.4,1.3,0.6,1.9
		c0.6,0,1.2,0,2,0C1293.5,718.4,1293.1,718.8,1292.5,719.2z"/>
	<path class="st10" d="M1316.3,718.1c-0.5,0.3-0.9,0.7-1.4,1.1c0.2,0.6,0.4,1.2,0.6,1.9c-0.6-0.4-1.1-0.8-1.6-1.1
		c-0.5,0.4-1,0.7-1.5,1c0,0-0.1,0-0.1-0.1c0.2-0.6,0.4-1.1,0.5-1.7c-0.5-0.4-1-0.7-1.6-1.2c0.8,0,1.3,0,2,0c0.2-0.6,0.4-1.2,0.6-1.8
		c0,0,0.1,0,0.1,0c0.2,0.6,0.4,1.1,0.6,1.7c0.6,0,1.2,0,1.8,0C1316.2,718,1316.3,718,1316.3,718.1z"/>
	<path class="st10" d="M1335.1,719.1c-0.5-0.4-1-0.7-1.6-1.2c0.8,0,1.4,0,2,0c0.2-0.6,0.4-1.2,0.6-1.9c0.2,0.7,0.4,1.3,0.6,1.9
		c0.6,0,1.2,0,1.8,0c0,0,0,0.1,0,0.1c-0.5,0.4-1,0.7-1.5,1.1c0.2,0.6,0.4,1.2,0.6,1.9c-0.6-0.4-1.1-0.8-1.6-1.1
		c-0.5,0.3-1,0.7-1.6,1.1C1334.7,720.3,1334.9,719.8,1335.1,719.1z"/>
	<path class="st10" d="M1303.7,719.1c0.2,0.6,0.4,1.2,0.6,1.9c-0.6-0.4-1.1-0.8-1.6-1.2c-0.5,0.4-1,0.7-1.6,1.2
		c0.2-0.7,0.4-1.3,0.6-1.9c-0.5-0.4-1-0.7-1.6-1.2c0.8,0,1.3,0,2,0c0.2-0.6,0.4-1.2,0.7-1.9c0.2,0.7,0.4,1.3,0.6,1.9
		c0.6,0,1.2,0,1.8,0c0,0,0,0.1,0.1,0.1C1304.7,718.4,1304.2,718.8,1303.7,719.1z"/>
	<path class="st10" d="M1342.7,714.4c0.2,0.6,0.4,1.2,0.6,1.9c-0.6-0.4-1.1-0.8-1.6-1.2c-0.5,0.4-1,0.7-1.6,1.2
		c0.2-0.7,0.4-1.3,0.6-1.9c-0.5-0.4-1-0.7-1.6-1.2c0.8,0,1.4,0,2,0c0.2-0.6,0.4-1.2,0.6-1.9c0.2,0.7,0.4,1.3,0.6,1.9
		c0.6,0,1.2,0,1.8,0c0,0,0,0.1,0.1,0.1C1343.7,713.7,1343.2,714,1342.7,714.4z"/>
	<path class="st10" d="M1331.2,713.2c0.6,0,1.2,0,2,0c-0.6,0.5-1.1,0.8-1.6,1.2c0.2,0.6,0.4,1.1,0.5,1.7c0,0-0.1,0.1-0.1,0.1
		c-0.5-0.3-1-0.7-1.5-1c-0.5,0.3-1,0.7-1.6,1.1c0.2-0.7,0.4-1.3,0.6-1.9c-0.5-0.4-1-0.7-1.6-1.2c0.8,0,1.3,0,2,0
		c0.2-0.6,0.4-1.2,0.6-1.9C1330.8,712,1330.9,712.6,1331.2,713.2z"/>
	<path class="st10" d="M1320,713.2c0.6,0,1.2,0,2,0c-0.6,0.5-1.1,0.8-1.6,1.2c0.2,0.6,0.4,1.2,0.6,1.9c-0.6-0.4-1.1-0.8-1.6-1.2
		c-0.5,0.4-1,0.7-1.6,1.2c0.2-0.7,0.4-1.3,0.6-1.9c-0.5-0.4-1-0.7-1.6-1.2c0.8,0,1.3,0,2,0c0.2-0.6,0.4-1.2,0.6-1.7c0,0,0.1,0,0.1,0
		C1319.6,712,1319.8,712.6,1320,713.2z"/>
	<path class="st10" d="M1305.8,713.2c0.6,0,1.2,0,1.8,0c0.2-0.6,0.4-1.2,0.7-1.9c0.2,0.7,0.4,1.3,0.6,1.9c0.6,0,1.2,0,1.8,0
		c0,0,0,0.1,0.1,0.1c-0.5,0.3-0.9,0.7-1.4,1.1c0.2,0.6,0.4,1.2,0.6,1.9c-0.6-0.4-1.1-0.8-1.6-1.2c-0.5,0.4-1,0.7-1.6,1.2
		c0.2-0.7,0.4-1.3,0.6-1.9c-0.5-0.4-1-0.7-1.5-1.1C1305.8,713.3,1305.8,713.3,1305.8,713.2z"/>
	<path class="st10" d="M1299.5,713.4c-0.5,0.3-0.9,0.7-1.4,1.1c0.2,0.6,0.4,1.2,0.5,1.7c0,0-0.1,0-0.1,0.1c-0.5-0.3-1-0.7-1.5-1
		c-0.5,0.3-1,0.7-1.6,1.1c0.2-0.7,0.4-1.3,0.6-1.9c-0.5-0.4-1-0.7-1.5-1.1c0,0,0-0.1,0-0.1c0.6,0,1.2,0,1.8,0
		c0.2-0.6,0.4-1.2,0.6-1.9c0.2,0.7,0.4,1.3,0.6,1.9c0.6,0,1.2,0,1.8,0C1299.5,713.3,1299.5,713.3,1299.5,713.4z"/>
	<path class="st10" d="M1286,711.5c0.2,0.6,0.4,1.1,0.6,1.7c0.6,0,1.2,0,1.8,0c0,0,0,0.1,0,0.1c-0.5,0.4-1,0.7-1.5,1.1
		c0.2,0.6,0.4,1.2,0.6,1.9c-0.6-0.4-1.1-0.8-1.6-1.2c-0.5,0.4-1,0.7-1.6,1.2c0.2-0.7,0.4-1.3,0.6-1.9c-0.5-0.4-1-0.7-1.6-1.2
		c0.8,0,1.4,0,2,0c0.2-0.6,0.4-1.2,0.6-1.8C1285.9,711.5,1286,711.5,1286,711.5z"/>
	<path class="st10" d="M1290.9,708.5c0.2-0.6,0.4-1.2,0.6-1.9c0.2,0.7,0.4,1.3,0.6,1.9c0.6,0,1.2,0,2,0c-0.6,0.4-1.1,0.8-1.6,1.2
		c0.2,0.6,0.4,1.2,0.6,1.9c-0.6-0.4-1.1-0.8-1.6-1.2c-0.5,0.4-1,0.7-1.6,1.2c0.2-0.7,0.4-1.3,0.6-1.9c-0.5-0.4-1-0.7-1.6-1.2
		C1289.6,708.5,1290.2,708.5,1290.9,708.5z"/>
	<path class="st10" d="M1322.5,708.5c0.6,0,1.2,0,1.8,0c0.2-0.6,0.4-1.2,0.6-1.9c0.2,0.7,0.4,1.3,0.6,1.9c0.6,0,1.2,0,1.8,0
		c0,0,0,0.1,0.1,0.1c-0.5,0.4-1,0.7-1.5,1.1c0.2,0.6,0.4,1.2,0.6,1.9c-0.6-0.4-1.1-0.8-1.6-1.1c-0.5,0.4-1,0.7-1.6,1.2
		c0.2-0.7,0.4-1.3,0.6-1.9c-0.5-0.4-1-0.7-1.5-1.1C1322.5,708.6,1322.5,708.5,1322.5,708.5z"/>
	<path class="st10" d="M1336.1,706.8c0.2,0.6,0.4,1.1,0.6,1.7c0.6,0,1.2,0,1.8,0c0,0,0,0.1,0,0.1c-0.5,0.4-1,0.7-1.5,1.1
		c0.2,0.6,0.4,1.2,0.6,1.9c-0.6-0.4-1.1-0.8-1.6-1.2c-0.5,0.4-1,0.7-1.6,1.2c0.2-0.7,0.4-1.3,0.6-1.9c-0.5-0.4-1-0.7-1.4-1.1
		c0,0,0-0.1,0-0.1c0.6,0,1.2,0,1.8,0c0.2-0.6,0.4-1.2,0.6-1.7C1336.1,706.7,1336.1,706.8,1336.1,706.8z"/>
	<path class="st10" d="M1301,711.6c0.2-0.7,0.4-1.3,0.6-1.9c-0.5-0.4-1-0.7-1.6-1.2c0.7,0,1.3,0,1.9,0c0.2-0.6,0.4-1.2,0.7-1.9
		c0.2,0.7,0.4,1.3,0.6,1.9c0.6,0,1.2,0,1.8,0c0,0,0,0.1,0.1,0.1c-0.5,0.4-1,0.7-1.5,1.1c0.2,0.6,0.4,1.1,0.6,1.9
		c-0.6-0.4-1.1-0.8-1.6-1.1C1302.1,710.8,1301.7,711.1,1301,711.6z"/>
	<path class="st10" d="M1321.8,703.9c-0.5,0.4-1,0.7-1.4,1.1c0.2,0.6,0.4,1.2,0.6,1.9c-0.6-0.4-1.1-0.8-1.6-1.2
		c-0.5,0.4-1,0.7-1.6,1.2c0.2-0.7,0.4-1.3,0.6-1.9c-0.5-0.4-1-0.7-1.6-1.2c0.7,0,1.3,0,1.9,0c0.2-0.6,0.4-1.2,0.7-1.9
		c0.2,0.7,0.4,1.3,0.6,1.9c0.6,0,1.2,0,1.8,0C1321.8,703.8,1321.8,703.8,1321.8,703.9z"/>
	<path class="st10" d="M1314.8,709.7c0.2,0.6,0.4,1.1,0.5,1.7c0,0-0.1,0.1-0.1,0.1c-0.5-0.3-1-0.7-1.5-1c-0.5,0.4-1,0.7-1.5,1.1
		c0,0-0.1,0-0.1-0.1c0.2-0.6,0.4-1.1,0.5-1.7c-0.5-0.4-1-0.7-1.6-1.2c0.7,0,1.3,0,2,0c0.2-0.6,0.4-1.2,0.6-1.8c0,0,0.1,0,0.1,0
		c0.2,0.6,0.4,1.1,0.6,1.7c0.6,0,1.2,0,2,0C1315.8,708.9,1315.3,709.3,1314.8,709.7z"/>
	<path class="st10" d="M1288.4,703.9c-0.5,0.3-0.9,0.7-1.4,1.1c0.2,0.6,0.4,1.2,0.6,1.9c-0.6-0.4-1.1-0.8-1.6-1.1
		c-0.5,0.3-1,0.7-1.6,1.1c0.2-0.7,0.4-1.3,0.6-1.9c-0.5-0.4-1-0.7-1.6-1.2c0.7,0,1.3,0,1.9,0c0.2-0.6,0.4-1.2,0.6-1.9
		c0.2,0.7,0.4,1.3,0.6,1.9c0.6,0,1.2,0,1.8,0C1288.4,703.8,1288.4,703.8,1288.4,703.9z"/>
	<path class="st10" d="M1329.5,704.9c-0.5-0.4-1-0.7-1.4-1.1c0,0,0-0.1,0-0.1c0.6,0,1.2,0,1.8,0c0.2-0.6,0.4-1.2,0.6-1.9
		c0.2,0.7,0.4,1.3,0.7,1.9c0.6,0,1.2,0,1.8,0c0,0,0,0.1,0,0.1c-0.5,0.4-0.9,0.7-1.4,1.1c0.2,0.6,0.4,1.2,0.5,1.7
		c0,0-0.1,0.1-0.1,0.1c-0.5-0.3-1-0.7-1.5-1.1c-0.5,0.4-1,0.7-1.6,1.1C1329.1,706.1,1329.3,705.5,1329.5,704.9z"/>
	<path class="st10" d="M1298.1,704.9c0.2,0.6,0.4,1.2,0.5,1.7c0,0-0.1,0.1-0.1,0.1c-0.5-0.3-1-0.7-1.5-1c-0.5,0.3-1,0.7-1.6,1.1
		c0.2-0.7,0.4-1.3,0.6-1.9c-0.5-0.4-1-0.7-1.6-1.2c0.7,0,1.3,0,1.9,0c0.2-0.6,0.4-1.2,0.6-1.8c0,0,0.1,0,0.1,0
		c0.2,0.6,0.4,1.1,0.6,1.7c0.6,0,1.2,0,1.8,0c0,0,0,0.1,0,0.1C1299.1,704.2,1298.6,704.6,1298.1,704.9z"/>
	<path class="st10" d="M1343.1,706.7c-0.5-0.3-0.9-0.7-1.5-1c-0.5,0.4-1,0.7-1.6,1.2c0.2-0.7,0.4-1.3,0.6-1.9
		c-0.5-0.4-1-0.7-1.6-1.2c0.7,0,1.3,0,1.9,0c0.2-0.6,0.4-1.2,0.6-1.9c0.2,0.7,0.4,1.3,0.6,1.9c0.6,0,1.2,0,1.8,0c0,0,0,0.1,0,0.1
		c-0.5,0.4-0.9,0.7-1.4,1.1c0.2,0.6,0.4,1.2,0.5,1.8C1343.2,706.7,1343.1,706.7,1343.1,706.7z"/>
	<path class="st10" d="M1307.6,703.8c0.2-0.6,0.4-1.2,0.7-1.9c0.2,0.7,0.4,1.3,0.6,1.9c0.6,0,1.2,0,1.8,0c0,0,0,0.1,0.1,0.1
		c-0.5,0.3-0.9,0.7-1.4,1.1c0.2,0.6,0.4,1.2,0.6,1.9c-0.6-0.4-1.1-0.8-1.6-1.1c-0.5,0.4-1,0.7-1.6,1.1c0.2-0.7,0.4-1.3,0.6-1.9
		c-0.5-0.4-1-0.7-1.6-1.2C1306.4,703.8,1307,703.8,1307.6,703.8z"/>
	<path class="st10" d="M1313.8,697.1c0.2,0.7,0.4,1.3,0.6,1.9c0.6,0,1.2,0,1.8,0c0,0,0,0.1,0,0.1c-0.5,0.4-0.9,0.7-1.4,1.1
		c0.2,0.6,0.4,1.2,0.6,1.9c-0.6-0.4-1.1-0.8-1.6-1.2c-0.5,0.4-1,0.7-1.6,1.1c0.2-0.7,0.4-1.3,0.6-1.9c-0.5-0.4-1-0.7-1.6-1.2
		c0.7,0,1.3,0,1.9,0C1313.4,698.4,1313.6,697.8,1313.8,697.1z"/>
	<path class="st10" d="M1335.4,699c0.2-0.7,0.4-1.2,0.6-1.9c0.2,0.7,0.4,1.3,0.6,1.9c0.6,0,1.2,0,1.8,0c0,0,0,0.1,0,0.1
		c-0.5,0.4-1,0.7-1.5,1.1c0.2,0.6,0.4,1.2,0.6,1.9c-0.6-0.4-1.1-0.8-1.6-1.2c-0.5,0.4-1,0.7-1.6,1.2c0.2-0.7,0.4-1.3,0.6-1.9
		c-0.5-0.4-1-0.7-1.6-1.2C1334.2,699,1334.8,699,1335.4,699z"/>
	<path class="st10" d="M1324.9,697.1c0.2,0.7,0.4,1.3,0.6,1.9c0.6,0,1.2,0,1.8,0c0,0,0,0.1,0.1,0.1c-0.5,0.3-0.9,0.7-1.4,1.1
		c0.2,0.6,0.4,1.2,0.6,1.9c-0.6-0.4-1.1-0.8-1.6-1.2c-0.5,0.4-1,0.7-1.6,1.1c0.2-0.7,0.4-1.3,0.6-1.9c-0.5-0.4-1-0.7-1.6-1.2
		c0.7,0,1.3,0,1.9,0C1324.5,698.4,1324.7,697.8,1324.9,697.1z"/>
	<path class="st10" d="M1301.6,700.2c-0.5-0.4-1-0.7-1.6-1.2c0.7,0,1.3,0,2,0c0.2-0.6,0.4-1.2,0.7-1.9c0.2,0.7,0.4,1.3,0.6,1.9
		c0.6,0,1.2,0,1.8,0c0,0,0,0.1,0.1,0.1c-0.5,0.4-1,0.7-1.5,1.1c0.2,0.6,0.4,1.2,0.6,1.9c-0.6-0.5-1.1-0.8-1.6-1.2
		c-0.5,0.4-1,0.7-1.6,1.1C1301.3,701.4,1301.4,700.8,1301.6,700.2z"/>
	<path class="st10" d="M1290.9,699c0.2-0.6,0.4-1.2,0.7-1.9c0.2,0.7,0.4,1.3,0.7,1.9c0.6,0,1.2,0,1.8,0c0,0,0,0.1,0,0.1
		c-0.5,0.4-0.9,0.7-1.4,1.1c0.2,0.6,0.4,1.2,0.6,1.9c-0.6-0.5-1.1-0.8-1.6-1.2c-0.5,0.4-1,0.7-1.6,1.2c0.2-0.7,0.4-1.3,0.6-1.9
		c-0.5-0.4-1-0.7-1.6-1.2C1289.6,699,1290.2,699,1290.9,699z"/>
	<path class="st10" d="M1341.7,692.4c0.2,0.7,0.4,1.3,0.6,1.9c0.6,0,1.2,0,1.8,0c0,0,0,0.1,0,0.1c-0.5,0.4-0.9,0.7-1.4,1.1
		c0.2,0.6,0.4,1.2,0.6,1.9c-0.6-0.4-1.1-0.8-1.6-1.1c-0.5,0.4-1,0.7-1.6,1.2c0.2-0.7,0.4-1.3,0.6-1.9c-0.5-0.4-1-0.7-1.6-1.2
		c0.7,0,1.3,0,1.9,0C1341.2,693.7,1341.4,693.1,1341.7,692.4z"/>
	<path class="st10" d="M1333.1,694.3c-0.6,0.4-1.1,0.8-1.6,1.2c0.2,0.6,0.4,1.2,0.6,1.9c-0.6-0.4-1.1-0.8-1.6-1.1
		c-0.5,0.4-1,0.7-1.6,1.1c0.2-0.7,0.4-1.3,0.6-1.9c-0.5-0.4-1-0.7-1.6-1.2c0.7,0,1.3,0,1.9,0c0.2-0.6,0.4-1.2,0.7-1.9
		c0.2,0.7,0.4,1.3,0.6,1.9C1331.8,694.3,1332.4,694.3,1333.1,694.3z"/>
	<path class="st10" d="M1318.7,694.3c0.2-0.6,0.4-1.2,0.7-1.9c0.2,0.7,0.4,1.3,0.7,1.9c0.6,0,1.2,0,2,0c-0.6,0.5-1.1,0.8-1.6,1.2
		c0.2,0.6,0.4,1.2,0.6,1.9c-0.6-0.4-1.1-0.8-1.6-1.2c-0.5,0.4-1,0.7-1.6,1.2c0.2-0.7,0.4-1.3,0.6-1.9c-0.5-0.4-1-0.7-1.5-1.2
		C1317.5,694.3,1318.1,694.3,1318.7,694.3z"/>
	<path class="st10" d="M1308.2,692.4c0.2,0.7,0.4,1.3,0.6,1.9c0.6,0,1.2,0,1.8,0c0,0,0,0.1,0,0.1c-0.5,0.4-0.9,0.7-1.4,1.1
		c0.2,0.6,0.4,1.2,0.6,1.9c-0.6-0.4-1.1-0.8-1.6-1.1c-0.5,0.4-1,0.7-1.6,1.1c0.2-0.7,0.4-1.3,0.6-1.9c-0.5-0.4-1-0.7-1.6-1.2
		c0.7,0,1.3,0,1.9,0C1307.8,693.7,1308,693.1,1308.2,692.4z"/>
	<path class="st10" d="M1284.4,697.2c0.2-0.6,0.3-1.1,0.5-1.7c-0.5-0.4-1-0.7-1.5-1.2c0.7,0,1.3,0,1.9,0c0.2-0.6,0.4-1.2,0.7-1.9
		c0.2,0.7,0.4,1.3,0.7,1.9c0.6,0,1.2,0,2,0c-0.6,0.5-1.1,0.8-1.6,1.2c0.2,0.6,0.4,1.2,0.6,1.9c-0.6-0.4-1.1-0.8-1.6-1.2
		C1285.4,696.6,1285,696.9,1284.4,697.2C1284.4,697.2,1284.4,697.2,1284.4,697.2z"/>
	<path class="st10" d="M1298.5,697.3c-0.5-0.3-0.9-0.7-1.5-1c-0.5,0.4-1,0.7-1.6,1.2c0.2-0.7,0.4-1.3,0.6-1.9
		c-0.5-0.4-1-0.7-1.6-1.2c0.7,0,1.3,0,1.9,0c0.2-0.6,0.4-1.2,0.7-1.9c0.2,0.7,0.4,1.3,0.6,1.9c0.6,0,1.2,0,2,0
		c-0.6,0.4-1.1,0.8-1.6,1.2c0.2,0.6,0.4,1.2,0.5,1.7C1298.6,697.2,1298.6,697.2,1298.5,697.3z"/>
</g>
</svg>
